<svg xmlns="http://www.w3.org/2000/svg" viewBox="0 0 2755 60" width="2755" height="60"><path d="M1.126 1.358h29.83L59.123 30.18 30.789 59H1.126l27.663-28.82z" fill="#facfb4"/><path d="M43.376 1.358h29.83l28.167 28.822L73.039 59H43.376l27.663-28.82z" fill="#f8b88d"/><path d="M85.626 1.358h29.83l28.167 28.822L115.289 59H85.626l27.663-28.82z" fill="#f8a169"/><path d="M146.126 1.358h29.83l28.167 28.822L175.789 59h-29.663l27.663-28.82z" fill="#facfb4" fill-opacity=".914895"/><path d="M188.376 1.358h29.83l28.167 28.822L218.039 59h-29.663l27.663-28.82z" fill="#f8b88d" fill-opacity=".967199"/><path d="M230.626 1.358h29.83l28.167 28.822L260.289 59h-29.663l27.663-28.82z" fill="#f8a169" fill-opacity=".982731"/><path d="M291.126 1.358h29.83l28.167 28.822L320.789 59h-29.663l27.663-28.82z" fill="#facfb4" fill-opacity=".542748"/><path d="M333.376 1.358h29.83l28.167 28.822L363.039 59h-29.663l27.663-28.82z" fill="#f8b88d" fill-opacity=".824832"/><path d="M375.626 1.358h29.83l28.167 28.822L405.289 59h-29.663l27.663-28.82z" fill="#f8a169" fill-opacity=".914895"/><path d="M436.126 1.358h29.83l28.167 28.822L465.789 59h-29.663l27.663-28.82z" fill="#facfb4" fill-opacity=".224439"/><path d="M478.376 1.358h29.83l28.167 28.822L508.039 59h-29.663l27.663-28.82z" fill="#f8b88d" fill-opacity=".542748"/><path d="M520.626 1.358h29.83l28.167 28.822L550.289 59h-29.663l27.663-28.82z" fill="#f8a169" fill-opacity=".763413"/><path d="M581.126 1.358h29.83l28.167 28.822L610.789 59h-29.663l27.663-28.82z" fill="#facfb4" fill-opacity=".079224"/><path d="M623.376 1.358h29.83l28.167 28.822L653.039 59h-29.663l27.663-28.82z" fill="#f8b88d" fill-opacity=".304765"/><path d="M665.626 1.358h29.83l28.167 28.822L695.289 59h-29.663l27.663-28.82z" fill="#f8a169" fill-opacity=".542748"/><path d="M726.126 1.358h29.83l28.167 28.822L755.789 59h-29.663l27.663-28.82z" fill="#facfb4" fill-opacity=".016641"/><path d="M768.376 1.358h29.83l28.167 28.822L798.039 59h-29.663l27.663-28.82z" fill="#f8b88d" fill-opacity=".162868"/><path d="M810.626 1.358h29.83l28.167 28.822L840.289 59h-29.663l27.663-28.82z" fill="#f8a169" fill-opacity=".353754"/><path d="M913.376 1.358h29.83l28.167 28.822L943.039 59h-29.663l27.663-28.82z" fill="#f8b88d" fill-opacity=".079224"/><path d="M955.626 1.358h29.83l28.167 28.822L985.289 59h-29.663l27.663-28.82z" fill="#f8a169" fill-opacity=".224439"/><g><path d="M1016.126 1.358h29.83l28.167 28.822L1045.789 59h-29.663l27.663-28.82z" fill="#facfb4" fill-opacity=".017269"/><path d="M1058.376 1.358h29.83l28.167 28.822L1088.039 59h-29.663l27.663-28.82z" fill="#f8b88d" fill-opacity=".031209"/><path d="M1100.626 1.358h29.83l28.167 28.822L1130.289 59h-29.663l27.663-28.82z" fill="#f8a169" fill-opacity=".137649"/></g><g><path d="M1161.126 1.358h29.83l28.167 28.822L1190.789 59h-29.663l27.663-28.82z" fill="#facfb4" fill-opacity=".085105"/><path d="M1203.376 1.358h29.83l28.167 28.822L1233.039 59h-29.663l27.663-28.82z" fill="#f8b88d" fill-opacity=".007037"/><path d="M1245.626 1.358h29.83l28.167 28.822L1275.289 59h-29.663l27.663-28.82z" fill="#f8a169" fill-opacity=".079224"/></g><g><path d="M1306.126 1.358h29.83l28.167 28.822L1335.789 59h-29.663l27.663-28.82z" fill="#facfb4" fill-opacity=".236587"/><path d="M1390.626 1.358h29.83l28.167 28.822L1420.289 59h-29.663l27.663-28.82z" fill="#f8a169" fill-opacity=".040632"/></g><g><path d="M1451.126 1.358h29.83l28.167 28.822L1480.789 59h-29.663l27.663-28.82z" fill="#facfb4" fill-opacity=".457252"/><path d="M1493.376 1.358h29.83l28.167 28.822L1523.039 59h-29.663l27.663-28.82z" fill="#f8b88d" fill-opacity=".032801"/><path d="M1535.626 1.358h29.83l28.167 28.822L1565.289 59h-29.663l27.663-28.82z" fill="#f8a169" fill-opacity=".016641"/></g><g><path d="M1596.126 1.358h29.83l28.167 28.822L1625.789 59h-29.663l27.663-28.82z" fill="#facfb4" fill-opacity=".646246"/><path d="M1638.376 1.358h29.83l28.167 28.822L1668.039 59h-29.663l27.663-28.82z" fill="#f8b88d" fill-opacity=".175168"/><path d="M1680.626 1.358h29.83l28.167 28.822L1710.289 59h-29.663l27.663-28.82z" fill="#f8a169" fill-opacity=".003866"/></g><g><path d="M1741.126 1.358h29.83l28.167 28.822L1770.789 59h-29.663l27.663-28.82z" fill="#facfb4" fill-opacity=".775561"/><path d="M1783.376 1.358h29.83l28.167 28.822L1813.039 59h-29.663l27.663-28.82z" fill="#f8b88d" fill-opacity=".457252"/></g><g><path d="M1886.126 1.358h29.83l28.167 28.822L1915.789 59h-29.663l27.663-28.82z" fill="#facfb4" fill-opacity=".862351"/><path d="M1928.376 1.358h29.83l28.167 28.822L1958.039 59h-29.663l27.663-28.82z" fill="#f8b88d" fill-opacity=".695235"/><path d="M1970.626 1.358h29.83l28.167 28.822L2000.289 59h-29.663l27.663-28.82z" fill="#f8a169" fill-opacity=".085105"/></g><g><path d="M2031.126 1.358h29.83l28.167 28.822L2060.789 59h-29.663l27.663-28.82z" fill="#facfb4" fill-opacity=".920776"/><path d="M2073.376 1.358h29.83l28.167 28.822L2103.039 59h-29.663l27.663-28.82z" fill="#f8b88d" fill-opacity=".837132"/><path d="M2115.626 1.358h29.83l28.167 28.822L2145.289 59h-29.663l27.663-28.82z" fill="#f8a169" fill-opacity=".457252"/></g><g><path d="M2176.126 1.358h29.83l28.167 28.822L2205.789 59h-29.663l27.663-28.82z" fill="#facfb4" fill-opacity=".959368"/><path d="M2218.376 1.358h29.83l28.167 28.822L2248.039 59h-29.663l27.663-28.82z" fill="#f8b88d" fill-opacity=".920776"/><path d="M2260.626 1.358h29.83l28.167 28.822L2290.289 59h-29.663l27.663-28.82z" fill="#f8a169" fill-opacity=".775561"/></g><g><path d="M2321.126 1.358h29.83l28.167 28.822L2350.789 59h-29.663l27.663-28.82z" fill="#facfb4" fill-opacity=".983359"/><path d="M2363.376 1.358h29.83l28.167 28.822L2393.039 59h-29.663l27.663-28.82z" fill="#f8b88d" fill-opacity=".968791"/><path d="M2405.626 1.358h29.83l28.167 28.822L2435.289 59h-29.663l27.663-28.82z" fill="#f8a169" fill-opacity=".920776"/></g><g><path d="M2466.126 1.358h29.83l28.167 28.822L2495.789 59h-29.663l27.663-28.82z" fill="#facfb4" fill-opacity=".996134"/><path d="M2508.376 1.358h29.83l28.167 28.822L2538.039 59h-29.663l27.663-28.82z" fill="#f8b88d" fill-opacity=".992963"/><path d="M2550.626 1.358h29.83l28.167 28.822L2580.289 59h-29.663l27.663-28.82z" fill="#f8a169" fill-opacity=".983359"/></g><g><path d="M2611.126 1.358h29.83l28.167 28.822L2640.789 59h-29.663l27.663-28.82z" fill="#facfb4"/><path d="M2653.376 1.358h29.83l28.167 28.822L2683.039 59h-29.663l27.663-28.82z" fill="#f8b88d"/><path d="M2695.626 1.358h29.83l28.167 28.822L2725.289 59h-29.663l27.663-28.82z" fill="#f8a169"/></g></svg>