<svg xmlns="http://www.w3.org/2000/svg" viewBox="0 0 7220 40" width="7220" height="40"><path d="M0 10.461h14.48l13.673 13.991-13.754 13.989H0l13.428-13.989z" fill="#facfb4"/><path d="M20.51 10.461h14.48l13.673 13.991-13.755 13.989H20.51l13.428-13.989z" fill="#f8b88d"/><path d="M41.019 10.46H55.5l13.673 13.992-13.755 13.989H41.019l13.429-13.989z" fill="#f8a169"/><g fill="#965a5a"><path d="M74.913 12.101h5.321V23.13h.194l9.476-11.029h6.213l-10.02 11.573 10.214 15.611h-6.059l-7.495-11.922-2.524 2.796v9.126h-5.321V12.101zM122.214 12.101v27.185h-5.398V27.751H105.67v11.534h-5.398V12.101h5.398v11.418h11.146V12.101h5.398zM142.252 32.605h-9.32l-2.175 6.68h-5.437l9.787-27.185h5.048l9.748 27.185h-5.437l-2.214-6.68zm-1.359-4.155l-3.223-9.67h-.233l-3.146 9.67h6.602zm-5.436-19.301l3.922-7.573h5.32l-4.971 7.612-4.271-.039zM152.854 12.101h8l6.02 16.738h.117l6.02-16.738h8v27.185h-5.282V19.79h-.194L168.7 39.285h-3.495L158.33 19.79h-.194v19.495h-5.282V12.101zM209.903 13.421c1.476.88 2.563 2.033 3.262 3.457.699 1.424 1.049 2.951 1.049 4.583 0 1.631-.344 3.14-1.029 4.524-.687 1.385-1.768 2.505-3.243 3.359-1.475.854-3.314 1.281-5.515 1.281h-4.776v8.66h-5.282V12.101h10.059c2.174 0 3.999.44 5.475 1.32zm-2.447 11.689c1.035-.725 1.554-1.941 1.554-3.65 0-1.709-.512-2.906-1.534-3.592-1.023-.686-2.311-1.029-3.864-1.029h-3.961v9.36h3.961c1.527-.001 2.809-.363 3.844-1.089zM239.533 12.101v27.185h-5.398V27.751h-11.146v11.534h-5.397V12.101h5.397v11.418h11.146V12.101h5.398zM259.571 32.605h-9.32l-2.175 6.68h-5.437l9.786-27.185h5.049l9.747 27.185h-5.437l-2.213-6.68zm-1.359-4.155l-3.223-9.67h-.233l-3.146 9.67h6.602zm-5.437-19.301l3.922-7.573h5.32l-4.971 7.612-4.271-.039zM279.104 12.101h6.252l11.107 18.874h.077V12.101h5.359v27.224h-6.291l-11.029-18.33h-.116v18.33h-5.359V12.101zM311.085 37.615c-1.773-1.32-3.094-3.042-3.961-5.165-.868-2.123-1.301-4.375-1.301-6.757 0-2.46.452-4.764 1.359-6.913.905-2.148 2.284-3.89 4.136-5.223 1.851-1.333 4.122-2 6.815-2 3.081 0 5.599.854 7.554 2.563 1.954 1.708 3.32 3.91 4.097 6.602h-5.67c-.414-1.398-1.113-2.485-2.097-3.262-.984-.777-2.267-1.165-3.845-1.165-2.228 0-3.936.861-5.127 2.583-1.19 1.722-1.786 4.033-1.786 6.932 0 3.004.628 5.334 1.884 6.99 1.255 1.657 3.01 2.485 5.262 2.485 1.968 0 3.482-.602 4.544-1.806 1.062-1.204 1.618-2.66 1.67-4.369v-.621h-5.709v-3.884h10.952v14.68h-4v-4.039h-.312c-.414.674-.822 1.269-1.223 1.787-.402.518-1.179 1.074-2.33 1.669-1.152.596-2.622.894-4.408.894-2.562 0-4.731-.66-6.504-1.981zM349.744 32.605h-9.32l-2.175 6.68h-5.437l9.786-27.185h5.049l9.747 27.185h-5.437l-2.213-6.68zm-1.359-4.155l-3.223-9.67h-.233l-3.146 9.67h6.602zM365.201 39.285v-9.437L356.268 12.1h5.631l5.864 12.271h.233l5.786-12.271h5.67l-8.932 17.748v9.437h-5.319z"/></g><g fill="#ffffff"><path d="M74.513 22.975h3.192v6.617h.116l5.686-6.617h3.728l-6.011 6.943 6.128 9.367h-3.635l-4.497-7.153-1.515 1.678v5.476h-3.192V22.975zM102.894 22.975v16.311h-3.239v-6.92h-6.688v6.92h-3.239V22.975h3.239v6.851h6.688v-6.851h3.239zM114.917 35.277h-5.592l-1.305 4.008h-3.262l5.872-16.311h3.029l5.849 16.311h-3.262l-1.329-4.008zm-.816-2.493l-1.934-5.802h-.14l-1.887 5.802h3.961zm-3.262-11.581l2.353-4.543h3.192l-2.982 4.567-2.563-.024zM121.278 22.975h4.8l3.612 10.043h.07l3.612-10.043h4.8v16.311h-3.169V27.588h-.116l-4.101 11.697h-2.097l-4.124-11.697h-.117v11.697h-3.169v-16.31zM155.506 23.767c.886.528 1.538 1.22 1.958 2.074.42.854.629 1.771.629 2.749 0 .978-.206 1.884-.617 2.715-.412.831-1.061 1.503-1.946 2.016-.885.513-1.989.769-3.309.769h-2.866v5.196h-3.169V22.975h6.035c1.305 0 2.4.264 3.285.792zm-1.467 7.013c.621-.435.932-1.165.932-2.19s-.307-1.743-.92-2.155c-.614-.411-1.387-.617-2.318-.617h-2.377v5.615h2.377c.915 0 1.684-.217 2.306-.653zM173.285 22.975v16.311h-3.239v-6.92h-6.688v6.92h-3.239V22.975h3.239v6.851h6.688v-6.851h3.239zM185.308 35.277h-5.592l-1.305 4.008h-3.262l5.872-16.311h3.029l5.849 16.311h-3.262l-1.329-4.008zm-.816-2.493l-1.934-5.802h-.14l-1.887 5.802h3.961zm-3.262-11.581l2.353-4.543h3.192l-2.982 4.567-2.563-.024zM197.028 22.975h3.752l6.664 11.324h.046V22.975h3.216v16.334h-3.774l-6.618-10.998h-.069v10.998h-3.216V22.975zM216.217 38.283c-1.064-.792-1.856-1.825-2.377-3.099-.521-1.274-.78-2.625-.78-4.055 0-1.476.271-2.858.815-4.147.544-1.289 1.371-2.334 2.481-3.134 1.11-.8 2.474-1.2 4.09-1.2 1.848 0 3.358.513 4.531 1.538 1.173 1.024 1.992 2.346 2.459 3.961h-3.402c-.249-.839-.668-1.491-1.258-1.957-.591-.467-1.36-.699-2.308-.699-1.336 0-2.361.517-3.075 1.549-.715 1.034-1.072 2.42-1.072 4.16 0 1.802.377 3.2 1.131 4.193.753.995 1.806 1.491 3.157 1.491 1.18 0 2.089-.36 2.726-1.083s.971-1.597 1.002-2.621v-.373h-3.425v-2.33h6.57v8.808h-2.399v-2.423h-.187c-.249.403-.493.761-.734 1.071-.241.31-.707.645-1.397 1.002-.691.357-1.573.536-2.646.536-1.537.001-2.839-.396-3.902-1.188zM239.412 35.277h-5.593l-1.305 4.008h-3.262l5.872-16.311h3.028l5.849 16.311h-3.262l-1.327-4.008zm-.815-2.493l-1.935-5.802h-.14l-1.888 5.802h3.963zM248.686 39.285v-5.662l-5.358-10.648h3.378l3.519 7.363h.14l3.472-7.363h3.402l-5.359 10.648v5.662h-3.194z"/></g><path d="M380 10.461h14.48l13.673 13.991-13.754 13.989H380l13.428-13.989z" fill="#facfb4" fill-opacity=".931916"/><path d="M400.51 10.461h14.48l13.673 13.991-13.755 13.989H400.51l13.428-13.989z" fill="#f8b88d" fill-opacity=".973759"/><path d="M421.019 10.46H435.5l13.673 13.992-13.755 13.989h-14.399l13.429-13.989z" fill="#f8a169" fill-opacity=".986185"/><g fill="#965a5a"><path d="M454.913 12.101h5.321V23.13h.194l9.476-11.029h6.213l-10.02 11.573 10.214 15.611h-6.059l-7.495-11.922-2.524 2.796v9.126h-5.321V12.101zM502.214 12.101v27.185h-5.398V27.751H485.67v11.534h-5.398V12.101h5.398v11.418h11.146V12.101h5.398zM522.252 32.605h-9.32l-2.175 6.68h-5.437l9.787-27.185h5.048l9.748 27.185h-5.437l-2.214-6.68zm-1.359-4.155l-3.223-9.67h-.233l-3.146 9.67h6.602zm-5.436-19.301l3.922-7.573h5.32l-4.971 7.612-4.271-.039zM532.854 12.101h8l6.02 16.738h.117l6.02-16.738h8v27.185h-5.282V19.79h-.194L548.7 39.285h-3.495L538.33 19.79h-.194v19.495h-5.282V12.101zM589.903 13.421c1.476.88 2.563 2.033 3.262 3.457.699 1.424 1.049 2.951 1.049 4.583 0 1.631-.344 3.14-1.029 4.524-.687 1.385-1.768 2.505-3.243 3.359-1.475.854-3.314 1.281-5.515 1.281h-4.776v8.66h-5.282V12.101h10.059c2.174 0 3.999.44 5.475 1.32zm-2.447 11.689c1.035-.725 1.554-1.941 1.554-3.65 0-1.709-.512-2.906-1.534-3.592-1.023-.686-2.311-1.029-3.864-1.029h-3.961v9.36h3.961c1.527-.001 2.809-.363 3.844-1.089zM619.533 12.101v27.185h-5.398V27.751h-11.146v11.534h-5.397V12.101h5.397v11.418h11.146V12.101h5.398zM639.571 32.605h-9.32l-2.175 6.68h-5.437l9.786-27.185h5.049l9.747 27.185h-5.437l-2.213-6.68zm-1.359-4.155l-3.223-9.67h-.233l-3.146 9.67h6.602zm-5.437-19.301l3.922-7.573h5.32l-4.971 7.612-4.271-.039zM659.104 12.101h6.252l11.107 18.874h.077V12.101h5.359v27.224h-6.291l-11.029-18.33h-.116v18.33h-5.359V12.101zM691.085 37.615c-1.773-1.32-3.094-3.042-3.961-5.165-.868-2.123-1.301-4.375-1.301-6.757 0-2.46.452-4.764 1.359-6.913.905-2.148 2.284-3.89 4.136-5.223 1.851-1.333 4.122-2 6.815-2 3.081 0 5.599.854 7.554 2.563 1.954 1.708 3.32 3.91 4.097 6.602h-5.67c-.414-1.398-1.113-2.485-2.097-3.262-.984-.777-2.267-1.165-3.845-1.165-2.228 0-3.936.861-5.127 2.583-1.19 1.722-1.786 4.033-1.786 6.932 0 3.004.628 5.334 1.884 6.99 1.255 1.657 3.01 2.485 5.262 2.485 1.968 0 3.482-.602 4.544-1.806 1.062-1.204 1.618-2.66 1.67-4.369v-.621h-5.709v-3.884h10.952v14.68h-4v-4.039h-.312c-.414.674-.822 1.269-1.223 1.787-.402.518-1.179 1.074-2.33 1.669-1.152.596-2.622.894-4.408.894-2.562 0-4.731-.66-6.504-1.981zM729.744 32.605h-9.32l-2.175 6.68h-5.437l9.786-27.185h5.049l9.747 27.185h-5.437l-2.213-6.68zm-1.359-4.155l-3.223-9.67h-.233l-3.146 9.67h6.602zM745.201 39.285v-9.437L736.268 12.1h5.631l5.864 12.271h.233l5.786-12.271h5.67l-8.932 17.748v9.437h-5.319z"/></g><g fill="#ffffff"><path d="M454.513 22.975h3.192v6.617h.116l5.686-6.617h3.728l-6.011 6.943 6.128 9.367h-3.635l-4.497-7.153-1.515 1.678v5.476h-3.192V22.975zM482.894 22.975v16.311h-3.239v-6.92h-6.688v6.92h-3.239V22.975h3.239v6.851h6.688v-6.851h3.239zM494.917 35.277h-5.592l-1.305 4.008h-3.262l5.872-16.311h3.029l5.849 16.311h-3.262l-1.329-4.008zm-.816-2.493l-1.934-5.802h-.14l-1.887 5.802h3.961zm-3.262-11.581l2.353-4.543h3.192l-2.982 4.567-2.563-.024zM501.278 22.975h4.8l3.612 10.043h.07l3.612-10.043h4.8v16.311h-3.169V27.588h-.116l-4.101 11.697h-2.097l-4.124-11.697h-.117v11.697h-3.169v-16.31zM535.506 23.767c.886.528 1.538 1.22 1.958 2.074.42.854.629 1.771.629 2.749 0 .978-.206 1.884-.617 2.715-.412.831-1.061 1.503-1.946 2.016-.885.513-1.989.769-3.309.769h-2.866v5.196h-3.169V22.975h6.035c1.305 0 2.4.264 3.285.792zm-1.467 7.013c.621-.435.932-1.165.932-2.19s-.307-1.743-.92-2.155c-.614-.411-1.387-.617-2.318-.617h-2.377v5.615h2.377c.915 0 1.684-.217 2.306-.653zM553.285 22.975v16.311h-3.239v-6.92h-6.688v6.92h-3.239V22.975h3.239v6.851h6.688v-6.851h3.239zM565.308 35.277h-5.592l-1.305 4.008h-3.262l5.872-16.311h3.029l5.849 16.311h-3.262l-1.329-4.008zm-.816-2.493l-1.934-5.802h-.14l-1.887 5.802h3.961zm-3.262-11.581l2.353-4.543h3.192l-2.982 4.567-2.563-.024zM577.028 22.975h3.752l6.664 11.324h.046V22.975h3.216v16.334h-3.774l-6.618-10.998h-.069v10.998h-3.216V22.975zM596.217 38.283c-1.064-.792-1.856-1.825-2.377-3.099-.521-1.274-.78-2.625-.78-4.055 0-1.476.271-2.858.815-4.147.544-1.289 1.371-2.334 2.481-3.134 1.11-.8 2.474-1.2 4.09-1.2 1.848 0 3.358.513 4.531 1.538 1.173 1.024 1.992 2.346 2.459 3.961h-3.402c-.249-.839-.668-1.491-1.258-1.957-.591-.467-1.36-.699-2.308-.699-1.336 0-2.361.517-3.075 1.549-.715 1.034-1.072 2.42-1.072 4.16 0 1.802.377 3.2 1.131 4.193.753.995 1.806 1.491 3.157 1.491 1.18 0 2.089-.36 2.726-1.083s.971-1.597 1.002-2.621v-.373h-3.425v-2.33h6.57v8.808h-2.399v-2.423h-.187c-.249.403-.493.761-.734 1.071-.241.31-.707.645-1.397 1.002-.691.357-1.573.536-2.646.536-1.537.001-2.839-.396-3.902-1.188zM619.412 35.277h-5.593l-1.305 4.008h-3.262l5.872-16.311h3.028l5.849 16.311h-3.262l-1.327-4.008zm-.815-2.493l-1.935-5.802h-.14l-1.888 5.802h3.963zM628.686 39.285v-5.662l-5.358-10.648h3.378l3.519 7.363h.14l3.472-7.363h3.402l-5.359 10.648v5.662h-3.194z"/></g><path d="M760 10.461h14.48l13.673 13.991-13.754 13.989H760l13.428-13.989z" fill="#facfb4" fill-opacity=".634199"/><path d="M780.51 10.461h14.48l13.673 13.991-13.755 13.989H780.51l13.428-13.989z" fill="#f8b88d" fill-opacity=".859865"/><path d="M801.019 10.46H815.5l13.673 13.992-13.755 13.989h-14.399l13.429-13.989z" fill="#f8a169" fill-opacity=".931916"/><g fill="#965a5a"><path d="M834.913 12.101h5.321V23.13h.194l9.476-11.029h6.213l-10.02 11.573 10.214 15.611h-6.059l-7.495-11.922-2.524 2.796v9.126h-5.321V12.101zM882.214 12.101v27.185h-5.398V27.751H865.67v11.534h-5.398V12.101h5.398v11.418h11.146V12.101h5.398zM902.252 32.605h-9.32l-2.175 6.68h-5.437l9.787-27.185h5.048l9.748 27.185h-5.437l-2.214-6.68zm-1.359-4.155l-3.223-9.67h-.233l-3.146 9.67h6.602zm-5.436-19.301l3.922-7.573h5.32l-4.971 7.612-4.271-.039zM912.854 12.101h8l6.02 16.738h.117l6.02-16.738h8v27.185h-5.282V19.79h-.194L928.7 39.285h-3.495L918.33 19.79h-.194v19.495h-5.282V12.101zM969.903 13.421c1.476.88 2.563 2.033 3.262 3.457.699 1.424 1.049 2.951 1.049 4.583 0 1.631-.344 3.14-1.029 4.524-.687 1.385-1.768 2.505-3.243 3.359-1.475.854-3.314 1.281-5.515 1.281h-4.776v8.66h-5.282V12.101h10.059c2.174 0 3.999.44 5.475 1.32zm-2.447 11.689c1.035-.725 1.554-1.941 1.554-3.65 0-1.709-.512-2.906-1.534-3.592-1.023-.686-2.311-1.029-3.864-1.029h-3.961v9.36h3.961c1.527-.001 2.809-.363 3.844-1.089zM999.533 12.101v27.185h-5.398V27.751h-11.146v11.534h-5.397V12.101h5.397v11.418h11.146V12.101h5.398zM1019.571 32.605h-9.32l-2.175 6.68h-5.437l9.786-27.185h5.049l9.747 27.185h-5.437l-2.213-6.68zm-1.359-4.155l-3.223-9.67h-.233l-3.146 9.67h6.602zm-5.437-19.301l3.922-7.573h5.32l-4.971 7.612-4.271-.039zM1039.104 12.101h6.252l11.107 18.874h.077V12.101h5.359v27.224h-6.291l-11.029-18.33h-.116v18.33h-5.359V12.101zM1071.085 37.615c-1.773-1.32-3.094-3.042-3.961-5.165-.868-2.123-1.301-4.375-1.301-6.757 0-2.46.452-4.764 1.359-6.913.905-2.148 2.284-3.89 4.136-5.223 1.851-1.333 4.122-2 6.815-2 3.081 0 5.599.854 7.554 2.563 1.954 1.708 3.32 3.91 4.097 6.602h-5.67c-.414-1.398-1.113-2.485-2.097-3.262-.984-.777-2.267-1.165-3.845-1.165-2.228 0-3.936.861-5.127 2.583-1.19 1.722-1.786 4.033-1.786 6.932 0 3.004.628 5.334 1.884 6.99 1.255 1.657 3.01 2.485 5.262 2.485 1.968 0 3.482-.602 4.544-1.806 1.062-1.204 1.618-2.66 1.67-4.369v-.621h-5.709v-3.884h10.952v14.68h-4v-4.039h-.312c-.414.674-.822 1.269-1.223 1.787-.402.518-1.179 1.074-2.33 1.669-1.152.596-2.622.894-4.408.894-2.562 0-4.731-.66-6.504-1.981zM1109.744 32.605h-9.32l-2.175 6.68h-5.437l9.786-27.185h5.049l9.747 27.185h-5.437l-2.213-6.68zm-1.359-4.155l-3.223-9.67h-.233l-3.146 9.67h6.602zM1125.201 39.285v-9.437l-8.933-17.748h5.631l5.864 12.271h.233l5.786-12.271h5.67l-8.932 17.748v9.437h-5.319z"/></g><g fill="#ffffff"><path d="M834.513 22.975h3.192v6.617h.116l5.686-6.617h3.728l-6.011 6.943 6.128 9.367h-3.635l-4.497-7.153-1.515 1.678v5.476h-3.192V22.975zM862.894 22.975v16.311h-3.239v-6.92h-6.688v6.92h-3.239V22.975h3.239v6.851h6.688v-6.851h3.239zM874.917 35.277h-5.592l-1.305 4.008h-3.262l5.872-16.311h3.029l5.849 16.311h-3.262l-1.329-4.008zm-.816-2.493l-1.934-5.802h-.14l-1.887 5.802h3.961zm-3.262-11.581l2.353-4.543h3.192l-2.982 4.567-2.563-.024zM881.278 22.975h4.8l3.612 10.043h.07l3.612-10.043h4.8v16.311h-3.169V27.588h-.116l-4.101 11.697h-2.097l-4.124-11.697h-.117v11.697h-3.169v-16.31zM915.506 23.767c.886.528 1.538 1.22 1.958 2.074.42.854.629 1.771.629 2.749 0 .978-.206 1.884-.617 2.715-.412.831-1.061 1.503-1.946 2.016-.885.513-1.989.769-3.309.769h-2.866v5.196h-3.169V22.975h6.035c1.305 0 2.4.264 3.285.792zm-1.467 7.013c.621-.435.932-1.165.932-2.19s-.307-1.743-.92-2.155c-.614-.411-1.387-.617-2.318-.617h-2.377v5.615h2.377c.915 0 1.684-.217 2.306-.653zM933.285 22.975v16.311h-3.239v-6.92h-6.688v6.92h-3.239V22.975h3.239v6.851h6.688v-6.851h3.239zM945.308 35.277h-5.592l-1.305 4.008h-3.262l5.872-16.311h3.029l5.849 16.311h-3.262l-1.329-4.008zm-.816-2.493l-1.934-5.802h-.14l-1.887 5.802h3.961zm-3.262-11.581l2.353-4.543h3.192l-2.982 4.567-2.563-.024zM957.028 22.975h3.752l6.664 11.324h.046V22.975h3.216v16.334h-3.774l-6.618-10.998h-.069v10.998h-3.216V22.975zM976.217 38.283c-1.064-.792-1.856-1.825-2.377-3.099-.521-1.274-.78-2.625-.78-4.055 0-1.476.271-2.858.815-4.147.544-1.289 1.371-2.334 2.481-3.134 1.11-.8 2.474-1.2 4.09-1.2 1.848 0 3.358.513 4.531 1.538 1.173 1.024 1.992 2.346 2.459 3.961h-3.402c-.249-.839-.668-1.491-1.258-1.957-.591-.467-1.36-.699-2.308-.699-1.336 0-2.361.517-3.075 1.549-.715 1.034-1.072 2.42-1.072 4.16 0 1.802.377 3.2 1.131 4.193.753.995 1.806 1.491 3.157 1.491 1.18 0 2.089-.36 2.726-1.083s.971-1.597 1.002-2.621v-.373h-3.425v-2.33h6.57v8.808h-2.399v-2.423h-.187c-.249.403-.493.761-.734 1.071-.241.31-.707.645-1.397 1.002-.691.357-1.573.536-2.646.536-1.537.001-2.839-.396-3.902-1.188zM999.412 35.277h-5.593l-1.305 4.008h-3.262l5.872-16.311h3.028l5.849 16.311h-3.262l-1.327-4.008zm-.815-2.493l-1.935-5.802h-.14l-1.888 5.802h3.963zM1008.686 39.285v-5.662l-5.358-10.648h3.378l3.519 7.363h.14l3.472-7.363h3.402l-5.359 10.648v5.662h-3.194z"/></g><path d="M1140 10.461h14.48l13.673 13.991-13.754 13.989H1140l13.428-13.989z" fill="#facfb4" fill-opacity=".379551"/><path d="M1160.51 10.461h14.48l13.673 13.991-13.755 13.989h-14.398l13.428-13.989z" fill="#f8b88d" fill-opacity=".634199"/><path d="M1181.019 10.46h14.481l13.673 13.992-13.755 13.989h-14.399l13.429-13.989z" fill="#f8a169" fill-opacity=".81073"/><g fill="#965a5a"><path d="M1214.913 12.101h5.321V23.13h.194l9.476-11.029h6.213l-10.02 11.573 10.214 15.611h-6.059l-7.495-11.922-2.524 2.796v9.126h-5.321V12.101zM1262.214 12.101v27.185h-5.398V27.751h-11.146v11.534h-5.398V12.101h5.398v11.418h11.146V12.101h5.398zM1282.252 32.605h-9.32l-2.175 6.68h-5.437l9.787-27.185h5.048l9.748 27.185h-5.437l-2.214-6.68zm-1.359-4.155l-3.223-9.67h-.233l-3.146 9.67h6.602zm-5.436-19.301l3.922-7.573h5.32l-4.971 7.612-4.271-.039zM1292.854 12.101h8l6.02 16.738h.117l6.02-16.738h8v27.185h-5.282V19.79h-.194l-6.835 19.495h-3.495l-6.875-19.495h-.194v19.495h-5.282V12.101zM1349.903 13.421c1.476.88 2.563 2.033 3.262 3.457.699 1.424 1.049 2.951 1.049 4.583 0 1.631-.344 3.14-1.029 4.524-.687 1.385-1.768 2.505-3.243 3.359-1.475.854-3.314 1.281-5.515 1.281h-4.776v8.66h-5.282V12.101h10.059c2.174 0 3.999.44 5.475 1.32zm-2.447 11.689c1.035-.725 1.554-1.941 1.554-3.65 0-1.709-.512-2.906-1.534-3.592-1.023-.686-2.311-1.029-3.864-1.029h-3.961v9.36h3.961c1.527-.001 2.809-.363 3.844-1.089zM1379.533 12.101v27.185h-5.398V27.751h-11.146v11.534h-5.397V12.101h5.397v11.418h11.146V12.101h5.398zM1399.571 32.605h-9.32l-2.175 6.68h-5.437l9.786-27.185h5.049l9.747 27.185h-5.437l-2.213-6.68zm-1.359-4.155l-3.223-9.67h-.233l-3.146 9.67h6.602zm-5.437-19.301l3.922-7.573h5.32l-4.971 7.612-4.271-.039zM1419.104 12.101h6.252l11.107 18.874h.077V12.101h5.359v27.224h-6.291l-11.029-18.33h-.116v18.33h-5.359V12.101zM1451.085 37.615c-1.773-1.32-3.094-3.042-3.961-5.165-.868-2.123-1.301-4.375-1.301-6.757 0-2.46.452-4.764 1.359-6.913.905-2.148 2.284-3.89 4.136-5.223 1.851-1.333 4.122-2 6.815-2 3.081 0 5.599.854 7.554 2.563 1.954 1.708 3.32 3.91 4.097 6.602h-5.67c-.414-1.398-1.113-2.485-2.097-3.262-.984-.777-2.267-1.165-3.845-1.165-2.228 0-3.936.861-5.127 2.583-1.19 1.722-1.786 4.033-1.786 6.932 0 3.004.628 5.334 1.884 6.99 1.255 1.657 3.01 2.485 5.262 2.485 1.968 0 3.482-.602 4.544-1.806 1.062-1.204 1.618-2.66 1.67-4.369v-.621h-5.709v-3.884h10.952v14.68h-4v-4.039h-.312c-.414.674-.822 1.269-1.223 1.787-.402.518-1.179 1.074-2.33 1.669-1.152.596-2.622.894-4.408.894-2.562 0-4.731-.66-6.504-1.981zM1489.744 32.605h-9.32l-2.175 6.68h-5.437l9.786-27.185h5.049l9.747 27.185h-5.437l-2.213-6.68zm-1.359-4.155l-3.223-9.67h-.233l-3.146 9.67h6.602zM1505.201 39.285v-9.437l-8.933-17.748h5.631l5.864 12.271h.233l5.786-12.271h5.67l-8.932 17.748v9.437h-5.319z"/></g><g fill="#ffffff"><path d="M1214.513 22.975h3.192v6.617h.116l5.686-6.617h3.728l-6.011 6.943 6.128 9.367h-3.635l-4.497-7.153-1.515 1.678v5.476h-3.192V22.975zM1242.894 22.975v16.311h-3.239v-6.92h-6.688v6.92h-3.239V22.975h3.239v6.851h6.688v-6.851h3.239zM1254.917 35.277h-5.592l-1.305 4.008h-3.262l5.872-16.311h3.029l5.849 16.311h-3.262l-1.329-4.008zm-.816-2.493l-1.934-5.802h-.14l-1.887 5.802h3.961zm-3.262-11.581l2.353-4.543h3.192l-2.982 4.567-2.563-.024zM1261.278 22.975h4.8l3.612 10.043h.07l3.612-10.043h4.8v16.311h-3.169V27.588h-.116l-4.101 11.697h-2.097l-4.124-11.697h-.117v11.697h-3.169v-16.31zM1295.506 23.767c.886.528 1.538 1.22 1.958 2.074.42.854.629 1.771.629 2.749 0 .978-.206 1.884-.617 2.715-.412.831-1.061 1.503-1.946 2.016-.885.513-1.989.769-3.309.769h-2.866v5.196h-3.169V22.975h6.035c1.305 0 2.4.264 3.285.792zm-1.467 7.013c.621-.435.932-1.165.932-2.19s-.307-1.743-.92-2.155c-.614-.411-1.387-.617-2.318-.617h-2.377v5.615h2.377c.915 0 1.684-.217 2.306-.653zM1313.285 22.975v16.311h-3.239v-6.92h-6.688v6.92h-3.239V22.975h3.239v6.851h6.688v-6.851h3.239zM1325.308 35.277h-5.592l-1.305 4.008h-3.262l5.872-16.311h3.029l5.849 16.311h-3.262l-1.329-4.008zm-.816-2.493l-1.934-5.802h-.14l-1.887 5.802h3.961zm-3.262-11.581l2.353-4.543h3.192l-2.982 4.567-2.563-.024zM1337.028 22.975h3.752l6.664 11.324h.046V22.975h3.216v16.334h-3.774l-6.618-10.998h-.069v10.998h-3.216V22.975zM1356.217 38.283c-1.064-.792-1.856-1.825-2.377-3.099-.521-1.274-.78-2.625-.78-4.055 0-1.476.271-2.858.815-4.147.544-1.289 1.371-2.334 2.481-3.134 1.11-.8 2.474-1.2 4.09-1.2 1.848 0 3.358.513 4.531 1.538 1.173 1.024 1.992 2.346 2.459 3.961h-3.402c-.249-.839-.668-1.491-1.258-1.957-.591-.467-1.36-.699-2.308-.699-1.336 0-2.361.517-3.075 1.549-.715 1.034-1.072 2.42-1.072 4.16 0 1.802.377 3.2 1.131 4.193.753.995 1.806 1.491 3.157 1.491 1.18 0 2.089-.36 2.726-1.083s.971-1.597 1.002-2.621v-.373h-3.425v-2.33h6.57v8.808h-2.399v-2.423h-.187c-.249.403-.493.761-.734 1.071-.241.31-.707.645-1.397 1.002-.691.357-1.573.536-2.646.536-1.537.001-2.839-.396-3.902-1.188zM1379.412 35.277h-5.593l-1.305 4.008h-3.262l5.872-16.311h3.028l5.849 16.311h-3.262l-1.327-4.008zm-.815-2.493l-1.935-5.802h-.14l-1.888 5.802h3.963zM1388.686 39.285v-5.662l-5.358-10.648h3.378l3.519 7.363h.14l3.472-7.363h3.402l-5.359 10.648v5.662h-3.194z"/></g><g><path d="M1520 10.461h14.48l13.673 13.991-13.754 13.989H1520l13.428-13.989z" fill="#facfb4" fill-opacity=".263379"/><path d="M1540.51 10.461h14.48l13.673 13.991-13.755 13.989h-14.398l13.428-13.989z" fill="#f8b88d" fill-opacity=".443812"/><path d="M1561.019 10.46h14.481l13.673 13.992-13.755 13.989h-14.399l13.429-13.989z" fill="#f8a169" fill-opacity=".634199"/><g fill="#965a5a"><path d="M1594.913 12.101h5.321V23.13h.194l9.476-11.029h6.213l-10.02 11.573 10.214 15.611h-6.059l-7.495-11.922-2.524 2.796v9.126h-5.321V12.101zM1642.214 12.101v27.185h-5.398V27.751h-11.146v11.534h-5.398V12.101h5.398v11.418h11.146V12.101h5.398zM1662.252 32.605h-9.32l-2.175 6.68h-5.437l9.787-27.185h5.048l9.748 27.185h-5.437l-2.214-6.68zm-1.359-4.155l-3.223-9.67h-.233l-3.146 9.67h6.602zm-5.436-19.301l3.922-7.573h5.32l-4.971 7.612-4.271-.039zM1672.854 12.101h8l6.02 16.738h.117l6.02-16.738h8v27.185h-5.282V19.79h-.194l-6.835 19.495h-3.495l-6.875-19.495h-.194v19.495h-5.282V12.101zM1729.903 13.421c1.476.88 2.563 2.033 3.262 3.457.699 1.424 1.049 2.951 1.049 4.583 0 1.631-.344 3.14-1.029 4.524-.687 1.385-1.768 2.505-3.243 3.359-1.475.854-3.314 1.281-5.515 1.281h-4.776v8.66h-5.282V12.101h10.059c2.174 0 3.999.44 5.475 1.32zm-2.447 11.689c1.035-.725 1.554-1.941 1.554-3.65 0-1.709-.512-2.906-1.534-3.592-1.023-.686-2.311-1.029-3.864-1.029h-3.961v9.36h3.961c1.527-.001 2.809-.363 3.844-1.089zM1759.533 12.101v27.185h-5.398V27.751h-11.146v11.534h-5.397V12.101h5.397v11.418h11.146V12.101h5.398zM1779.571 32.605h-9.32l-2.175 6.68h-5.437l9.786-27.185h5.049l9.747 27.185h-5.437l-2.213-6.68zm-1.359-4.155l-3.223-9.67h-.233l-3.146 9.67h6.602zm-5.437-19.301l3.922-7.573h5.32l-4.971 7.612-4.271-.039zM1799.104 12.101h6.252l11.107 18.874h.077V12.101h5.359v27.224h-6.291l-11.029-18.33h-.116v18.33h-5.359V12.101zM1831.085 37.615c-1.773-1.32-3.094-3.042-3.961-5.165-.868-2.123-1.301-4.375-1.301-6.757 0-2.46.452-4.764 1.359-6.913.905-2.148 2.284-3.89 4.136-5.223 1.851-1.333 4.122-2 6.815-2 3.081 0 5.599.854 7.554 2.563 1.954 1.708 3.32 3.91 4.097 6.602h-5.67c-.414-1.398-1.113-2.485-2.097-3.262-.984-.777-2.267-1.165-3.845-1.165-2.228 0-3.936.861-5.127 2.583-1.19 1.722-1.786 4.033-1.786 6.932 0 3.004.628 5.334 1.884 6.99 1.255 1.657 3.01 2.485 5.262 2.485 1.968 0 3.482-.602 4.544-1.806 1.062-1.204 1.618-2.66 1.67-4.369v-.621h-5.709v-3.884h10.952v14.68h-4v-4.039h-.312c-.414.674-.822 1.269-1.223 1.787-.402.518-1.179 1.074-2.33 1.669-1.152.596-2.622.894-4.408.894-2.562 0-4.731-.66-6.504-1.981zM1869.744 32.605h-9.32l-2.175 6.68h-5.437l9.786-27.185h5.049l9.747 27.185h-5.437l-2.213-6.68zm-1.359-4.155l-3.223-9.67h-.233l-3.146 9.67h6.602zM1885.201 39.285v-9.437l-8.933-17.748h5.631l5.864 12.271h.233l5.786-12.271h5.67l-8.932 17.748v9.437h-5.319z"/></g><g fill="#ffffff"><path d="M1594.513 22.975h3.192v6.617h.116l5.686-6.617h3.728l-6.011 6.943 6.128 9.367h-3.635l-4.497-7.153-1.515 1.678v5.476h-3.192V22.975zM1622.894 22.975v16.311h-3.239v-6.92h-6.688v6.92h-3.239V22.975h3.239v6.851h6.688v-6.851h3.239zM1634.917 35.277h-5.592l-1.305 4.008h-3.262l5.872-16.311h3.029l5.849 16.311h-3.262l-1.329-4.008zm-.816-2.493l-1.934-5.802h-.14l-1.887 5.802h3.961zm-3.262-11.581l2.353-4.543h3.192l-2.982 4.567-2.563-.024zM1641.278 22.975h4.8l3.612 10.043h.07l3.612-10.043h4.8v16.311h-3.169V27.588h-.116l-4.101 11.697h-2.097l-4.124-11.697h-.117v11.697h-3.169v-16.31zM1675.506 23.767c.886.528 1.538 1.22 1.958 2.074.42.854.629 1.771.629 2.749 0 .978-.206 1.884-.617 2.715-.412.831-1.061 1.503-1.946 2.016-.885.513-1.989.769-3.309.769h-2.866v5.196h-3.169V22.975h6.035c1.305 0 2.4.264 3.285.792zm-1.467 7.013c.621-.435.932-1.165.932-2.19s-.307-1.743-.92-2.155c-.614-.411-1.387-.617-2.318-.617h-2.377v5.615h2.377c.915 0 1.684-.217 2.306-.653zM1693.285 22.975v16.311h-3.239v-6.92h-6.688v6.92h-3.239V22.975h3.239v6.851h6.688v-6.851h3.239zM1705.308 35.277h-5.592l-1.305 4.008h-3.262l5.872-16.311h3.029l5.849 16.311h-3.262l-1.329-4.008zm-.816-2.493l-1.934-5.802h-.14l-1.887 5.802h3.961zm-3.262-11.581l2.353-4.543h3.192l-2.982 4.567-2.563-.024zM1717.028 22.975h3.752l6.664 11.324h.046V22.975h3.216v16.334h-3.774l-6.618-10.998h-.069v10.998h-3.216V22.975zM1736.217 38.283c-1.064-.792-1.856-1.825-2.377-3.099-.521-1.274-.78-2.625-.78-4.055 0-1.476.271-2.858.815-4.147.544-1.289 1.371-2.334 2.481-3.134 1.11-.8 2.474-1.2 4.09-1.2 1.848 0 3.358.513 4.531 1.538 1.173 1.024 1.992 2.346 2.459 3.961h-3.402c-.249-.839-.668-1.491-1.258-1.957-.591-.467-1.36-.699-2.308-.699-1.336 0-2.361.517-3.075 1.549-.715 1.034-1.072 2.42-1.072 4.16 0 1.802.377 3.2 1.131 4.193.753.995 1.806 1.491 3.157 1.491 1.18 0 2.089-.36 2.726-1.083s.971-1.597 1.002-2.621v-.373h-3.425v-2.33h6.57v8.808h-2.399v-2.423h-.187c-.249.403-.493.761-.734 1.071-.241.31-.707.645-1.397 1.002-.691.357-1.573.536-2.646.536-1.537.001-2.839-.396-3.902-1.188zM1759.412 35.277h-5.593l-1.305 4.008h-3.262l5.872-16.311h3.028l5.849 16.311h-3.262l-1.327-4.008zm-.815-2.493l-1.935-5.802h-.14l-1.888 5.802h3.963zM1768.686 39.285v-5.662l-5.358-10.648h3.378l3.519 7.363h.14l3.472-7.363h3.402l-5.359 10.648v5.662h-3.194z"/></g></g><g><path d="M1900 10.461h14.48l13.673 13.991-13.754 13.989H1900l13.428-13.989z" fill="#facfb4" fill-opacity=".213313"/><path d="M1920.51 10.461h14.48l13.673 13.991-13.755 13.989h-14.398l13.428-13.989z" fill="#f8b88d" fill-opacity=".330295"/><path d="M1941.019 10.46h14.481l13.673 13.992-13.755 13.989h-14.399l13.429-13.989z" fill="#f8a169" fill-opacity=".483003"/><g fill="#965a5a"><path d="M1974.913 12.101h5.321V23.13h.194l9.476-11.029h6.213l-10.02 11.573 10.214 15.611h-6.059l-7.495-11.922-2.524 2.796v9.126h-5.321V12.101zM2022.214 12.101v27.185h-5.398V27.751h-11.146v11.534h-5.398V12.101h5.398v11.418h11.146V12.101h5.398zM2042.252 32.605h-9.32l-2.175 6.68h-5.437l9.787-27.185h5.048l9.748 27.185h-5.437l-2.214-6.68zm-1.359-4.155l-3.223-9.67h-.233l-3.146 9.67h6.602zm-5.436-19.301l3.922-7.573h5.32l-4.971 7.612-4.271-.039zM2052.854 12.101h8l6.02 16.738h.117l6.02-16.738h8v27.185h-5.282V19.79h-.194l-6.835 19.495h-3.495l-6.875-19.495h-.194v19.495h-5.282V12.101zM2109.903 13.421c1.476.88 2.563 2.033 3.262 3.457.699 1.424 1.049 2.951 1.049 4.583 0 1.631-.344 3.14-1.029 4.524-.687 1.385-1.768 2.505-3.243 3.359-1.475.854-3.314 1.281-5.515 1.281h-4.776v8.66h-5.282V12.101h10.059c2.174 0 3.999.44 5.475 1.32zm-2.447 11.689c1.035-.725 1.554-1.941 1.554-3.65 0-1.709-.512-2.906-1.534-3.592-1.023-.686-2.311-1.029-3.864-1.029h-3.961v9.36h3.961c1.527-.001 2.809-.363 3.844-1.089zM2139.533 12.101v27.185h-5.398V27.751h-11.146v11.534h-5.397V12.101h5.397v11.418h11.146V12.101h5.398zM2159.571 32.605h-9.32l-2.175 6.68h-5.437l9.786-27.185h5.049l9.747 27.185h-5.437l-2.213-6.68zm-1.359-4.155l-3.223-9.67h-.233l-3.146 9.67h6.602zm-5.437-19.301l3.922-7.573h5.32l-4.971 7.612-4.271-.039zM2179.104 12.101h6.252l11.107 18.874h.077V12.101h5.359v27.224h-6.291l-11.029-18.33h-.116v18.33h-5.359V12.101zM2211.085 37.615c-1.773-1.32-3.094-3.042-3.961-5.165-.868-2.123-1.301-4.375-1.301-6.757 0-2.46.452-4.764 1.359-6.913.905-2.148 2.284-3.89 4.136-5.223 1.851-1.333 4.122-2 6.815-2 3.081 0 5.599.854 7.554 2.563 1.954 1.708 3.32 3.91 4.097 6.602h-5.67c-.414-1.398-1.113-2.485-2.097-3.262-.984-.777-2.267-1.165-3.845-1.165-2.228 0-3.936.861-5.127 2.583-1.19 1.722-1.786 4.033-1.786 6.932 0 3.004.628 5.334 1.884 6.99 1.255 1.657 3.01 2.485 5.262 2.485 1.968 0 3.482-.602 4.544-1.806 1.062-1.204 1.618-2.66 1.67-4.369v-.621h-5.709v-3.884h10.952v14.68h-4v-4.039h-.312c-.414.674-.822 1.269-1.223 1.787-.402.518-1.179 1.074-2.33 1.669-1.152.596-2.622.894-4.408.894-2.562 0-4.731-.66-6.504-1.981zM2249.744 32.605h-9.32l-2.175 6.68h-5.437l9.786-27.185h5.049l9.747 27.185h-5.437l-2.213-6.68zm-1.359-4.155l-3.223-9.67h-.233l-3.146 9.67h6.602zM2265.201 39.285v-9.437l-8.933-17.748h5.631l5.864 12.271h.233l5.786-12.271h5.67l-8.932 17.748v9.437h-5.319z"/></g><g fill="#ffffff"><path d="M1974.513 22.975h3.192v6.617h.116l5.686-6.617h3.728l-6.011 6.943 6.128 9.367h-3.635l-4.497-7.153-1.515 1.678v5.476h-3.192V22.975zM2002.894 22.975v16.311h-3.239v-6.92h-6.688v6.92h-3.239V22.975h3.239v6.851h6.688v-6.851h3.239zM2014.917 35.277h-5.592l-1.305 4.008h-3.262l5.872-16.311h3.029l5.849 16.311h-3.262l-1.329-4.008zm-.816-2.493l-1.934-5.802h-.14l-1.887 5.802h3.961zm-3.262-11.581l2.353-4.543h3.192l-2.982 4.567-2.563-.024zM2021.278 22.975h4.8l3.612 10.043h.07l3.612-10.043h4.8v16.311h-3.169V27.588h-.116l-4.101 11.697h-2.097l-4.124-11.697h-.117v11.697h-3.169v-16.31zM2055.506 23.767c.886.528 1.538 1.22 1.958 2.074.42.854.629 1.771.629 2.749 0 .978-.206 1.884-.617 2.715-.412.831-1.061 1.503-1.946 2.016-.885.513-1.989.769-3.309.769h-2.866v5.196h-3.169V22.975h6.035c1.305 0 2.4.264 3.285.792zm-1.467 7.013c.621-.435.932-1.165.932-2.19s-.307-1.743-.92-2.155c-.614-.411-1.387-.617-2.318-.617h-2.377v5.615h2.377c.915 0 1.684-.217 2.306-.653zM2073.285 22.975v16.311h-3.239v-6.92h-6.688v6.92h-3.239V22.975h3.239v6.851h6.688v-6.851h3.239zM2085.308 35.277h-5.592l-1.305 4.008h-3.262l5.872-16.311h3.029l5.849 16.311h-3.262l-1.329-4.008zm-.816-2.493l-1.934-5.802h-.14l-1.887 5.802h3.961zm-3.262-11.581l2.353-4.543h3.192l-2.982 4.567-2.563-.024zM2097.028 22.975h3.752l6.664 11.324h.046V22.975h3.216v16.334h-3.774l-6.618-10.998h-.069v10.998h-3.216V22.975zM2116.217 38.283c-1.064-.792-1.856-1.825-2.377-3.099-.521-1.274-.78-2.625-.78-4.055 0-1.476.271-2.858.815-4.147.544-1.289 1.371-2.334 2.481-3.134 1.11-.8 2.474-1.2 4.09-1.2 1.848 0 3.358.513 4.531 1.538 1.173 1.024 1.992 2.346 2.459 3.961h-3.402c-.249-.839-.668-1.491-1.258-1.957-.591-.467-1.36-.699-2.308-.699-1.336 0-2.361.517-3.075 1.549-.715 1.034-1.072 2.42-1.072 4.16 0 1.802.377 3.2 1.131 4.193.753.995 1.806 1.491 3.157 1.491 1.18 0 2.089-.36 2.726-1.083s.971-1.597 1.002-2.621v-.373h-3.425v-2.33h6.57v8.808h-2.399v-2.423h-.187c-.249.403-.493.761-.734 1.071-.241.31-.707.645-1.397 1.002-.691.357-1.573.536-2.646.536-1.537.001-2.839-.396-3.902-1.188zM2139.412 35.277h-5.593l-1.305 4.008h-3.262l5.872-16.311h3.028l5.849 16.311h-3.262l-1.327-4.008zm-.815-2.493l-1.935-5.802h-.14l-1.888 5.802h3.963zM2148.686 39.285v-5.662l-5.358-10.648h3.378l3.519 7.363h.14l3.472-7.363h3.402l-5.359 10.648v5.662h-3.194z"/></g></g><g><path d="M2280 10.461h14.48l13.673 13.991-13.754 13.989H2280l13.428-13.989z" fill="#facfb4" fill-opacity=".2"/><path d="M2300.51 10.461h14.48l13.673 13.991-13.755 13.989h-14.398l13.428-13.989z" fill="#f8b88d" fill-opacity=".263379"/><path d="M2321.019 10.46h14.481l13.673 13.992-13.755 13.989h-14.399l13.429-13.989z" fill="#f8a169" fill-opacity=".379551"/><g fill="#965a5a"><path d="M2354.913 12.101h5.321V23.13h.194l9.476-11.029h6.213l-10.02 11.573 10.214 15.611h-6.059l-7.495-11.922-2.524 2.796v9.126h-5.321V12.101zM2402.214 12.101v27.185h-5.398V27.751h-11.146v11.534h-5.398V12.101h5.398v11.418h11.146V12.101h5.398zM2422.252 32.605h-9.32l-2.175 6.68h-5.437l9.787-27.185h5.048l9.748 27.185h-5.437l-2.214-6.68zm-1.359-4.155l-3.223-9.67h-.233l-3.146 9.67h6.602zm-5.436-19.301l3.922-7.573h5.32l-4.971 7.612-4.271-.039zM2432.854 12.101h8l6.02 16.738h.117l6.02-16.738h8v27.185h-5.282V19.79h-.194l-6.835 19.495h-3.495l-6.875-19.495h-.194v19.495h-5.282V12.101zM2489.903 13.421c1.476.88 2.563 2.033 3.262 3.457.699 1.424 1.049 2.951 1.049 4.583 0 1.631-.344 3.14-1.029 4.524-.687 1.385-1.768 2.505-3.243 3.359-1.475.854-3.314 1.281-5.515 1.281h-4.776v8.66h-5.282V12.101h10.059c2.174 0 3.999.44 5.475 1.32zm-2.447 11.689c1.035-.725 1.554-1.941 1.554-3.65 0-1.709-.512-2.906-1.534-3.592-1.023-.686-2.311-1.029-3.864-1.029h-3.961v9.36h3.961c1.527-.001 2.809-.363 3.844-1.089zM2519.533 12.101v27.185h-5.398V27.751h-11.146v11.534h-5.397V12.101h5.397v11.418h11.146V12.101h5.398zM2539.571 32.605h-9.32l-2.175 6.68h-5.437l9.786-27.185h5.049l9.747 27.185h-5.437l-2.213-6.68zm-1.359-4.155l-3.223-9.67h-.233l-3.146 9.67h6.602zm-5.437-19.301l3.922-7.573h5.32l-4.971 7.612-4.271-.039zM2559.104 12.101h6.252l11.107 18.874h.077V12.101h5.359v27.224h-6.291l-11.029-18.33h-.116v18.33h-5.359V12.101zM2591.085 37.615c-1.773-1.32-3.094-3.042-3.961-5.165-.868-2.123-1.301-4.375-1.301-6.757 0-2.46.452-4.764 1.359-6.913.905-2.148 2.284-3.89 4.136-5.223 1.851-1.333 4.122-2 6.815-2 3.081 0 5.599.854 7.554 2.563 1.954 1.708 3.32 3.91 4.097 6.602h-5.67c-.414-1.398-1.113-2.485-2.097-3.262-.984-.777-2.267-1.165-3.845-1.165-2.228 0-3.936.861-5.127 2.583-1.19 1.722-1.786 4.033-1.786 6.932 0 3.004.628 5.334 1.884 6.99 1.255 1.657 3.01 2.485 5.262 2.485 1.968 0 3.482-.602 4.544-1.806 1.062-1.204 1.618-2.66 1.67-4.369v-.621h-5.709v-3.884h10.952v14.68h-4v-4.039h-.312c-.414.674-.822 1.269-1.223 1.787-.402.518-1.179 1.074-2.33 1.669-1.152.596-2.622.894-4.408.894-2.562 0-4.731-.66-6.504-1.981zM2629.744 32.605h-9.32l-2.175 6.68h-5.437l9.786-27.185h5.049l9.747 27.185h-5.437l-2.213-6.68zm-1.359-4.155l-3.223-9.67h-.233l-3.146 9.67h6.602zM2645.201 39.285v-9.437l-8.933-17.748h5.631l5.864 12.271h.233l5.786-12.271h5.67l-8.932 17.748v9.437h-5.319z"/></g><g fill="#ffffff"><path d="M2354.513 22.975h3.192v6.617h.116l5.686-6.617h3.728l-6.011 6.943 6.128 9.367h-3.635l-4.497-7.153-1.515 1.678v5.476h-3.192V22.975zM2382.894 22.975v16.311h-3.239v-6.92h-6.688v6.92h-3.239V22.975h3.239v6.851h6.688v-6.851h3.239zM2394.917 35.277h-5.592l-1.305 4.008h-3.262l5.872-16.311h3.029l5.849 16.311h-3.262l-1.329-4.008zm-.816-2.493l-1.934-5.802h-.14l-1.887 5.802h3.961zm-3.262-11.581l2.353-4.543h3.192l-2.982 4.567-2.563-.024zM2401.278 22.975h4.8l3.612 10.043h.07l3.612-10.043h4.8v16.311h-3.169V27.588h-.116l-4.101 11.697h-2.097l-4.124-11.697h-.117v11.697h-3.169v-16.31zM2435.506 23.767c.886.528 1.538 1.22 1.958 2.074.42.854.629 1.771.629 2.749 0 .978-.206 1.884-.617 2.715-.412.831-1.061 1.503-1.946 2.016-.885.513-1.989.769-3.309.769h-2.866v5.196h-3.169V22.975h6.035c1.305 0 2.4.264 3.285.792zm-1.467 7.013c.621-.435.932-1.165.932-2.19s-.307-1.743-.92-2.155c-.614-.411-1.387-.617-2.318-.617h-2.377v5.615h2.377c.915 0 1.684-.217 2.306-.653zM2453.285 22.975v16.311h-3.239v-6.92h-6.688v6.92h-3.239V22.975h3.239v6.851h6.688v-6.851h3.239zM2465.308 35.277h-5.592l-1.305 4.008h-3.262l5.872-16.311h3.029l5.849 16.311h-3.262l-1.329-4.008zm-.816-2.493l-1.934-5.802h-.14l-1.887 5.802h3.961zm-3.262-11.581l2.353-4.543h3.192l-2.982 4.567-2.563-.024zM2477.028 22.975h3.752l6.664 11.324h.046V22.975h3.216v16.334h-3.774l-6.618-10.998h-.069v10.998h-3.216V22.975zM2496.217 38.283c-1.064-.792-1.856-1.825-2.377-3.099-.521-1.274-.78-2.625-.78-4.055 0-1.476.271-2.858.815-4.147.544-1.289 1.371-2.334 2.481-3.134 1.11-.8 2.474-1.2 4.09-1.2 1.848 0 3.358.513 4.531 1.538 1.173 1.024 1.992 2.346 2.459 3.961h-3.402c-.249-.839-.668-1.491-1.258-1.957-.591-.467-1.36-.699-2.308-.699-1.336 0-2.361.517-3.075 1.549-.715 1.034-1.072 2.42-1.072 4.16 0 1.802.377 3.2 1.131 4.193.753.995 1.806 1.491 3.157 1.491 1.18 0 2.089-.36 2.726-1.083s.971-1.597 1.002-2.621v-.373h-3.425v-2.33h6.57v8.808h-2.399v-2.423h-.187c-.249.403-.493.761-.734 1.071-.241.31-.707.645-1.397 1.002-.691.357-1.573.536-2.646.536-1.537.001-2.839-.396-3.902-1.188zM2519.412 35.277h-5.593l-1.305 4.008h-3.262l5.872-16.311h3.028l5.849 16.311h-3.262l-1.327-4.008zm-.815-2.493l-1.935-5.802h-.14l-1.888 5.802h3.963zM2528.686 39.285v-5.662l-5.358-10.648h3.378l3.519 7.363h.14l3.472-7.363h3.402l-5.359 10.648v5.662h-3.194z"/></g></g><g><path d="M2660 10.461h14.48l13.673 13.991-13.754 13.989H2660l13.428-13.989z" fill="#facfb4" fill-opacity=".213815"/><path d="M2680.51 10.461h14.48l13.673 13.991-13.755 13.989h-14.398l13.428-13.989z" fill="#f8b88d" fill-opacity=".224967"/><path d="M2701.019 10.46h14.481l13.673 13.992-13.755 13.989h-14.399l13.429-13.989z" fill="#f8a169" fill-opacity=".310119"/><g fill="#965a5a"><path d="M2734.913 12.101h5.321V23.13h.194l9.476-11.029h6.213l-10.02 11.573 10.214 15.611h-6.059l-7.495-11.922-2.524 2.796v9.126h-5.321V12.101zM2782.214 12.101v27.185h-5.398V27.751h-11.146v11.534h-5.398V12.101h5.398v11.418h11.146V12.101h5.398zM2802.252 32.605h-9.32l-2.175 6.68h-5.437l9.787-27.185h5.048l9.748 27.185h-5.437l-2.214-6.68zm-1.359-4.155l-3.223-9.67h-.233l-3.146 9.67h6.602zm-5.436-19.301l3.922-7.573h5.32l-4.971 7.612-4.271-.039zM2812.854 12.101h8l6.02 16.738h.117l6.02-16.738h8v27.185h-5.282V19.79h-.194l-6.835 19.495h-3.495l-6.875-19.495h-.194v19.495h-5.282V12.101zM2869.903 13.421c1.476.88 2.563 2.033 3.262 3.457.699 1.424 1.049 2.951 1.049 4.583 0 1.631-.344 3.14-1.029 4.524-.687 1.385-1.768 2.505-3.243 3.359-1.475.854-3.314 1.281-5.515 1.281h-4.776v8.66h-5.282V12.101h10.059c2.174 0 3.999.44 5.475 1.32zm-2.447 11.689c1.035-.725 1.554-1.941 1.554-3.65 0-1.709-.512-2.906-1.534-3.592-1.023-.686-2.311-1.029-3.864-1.029h-3.961v9.36h3.961c1.527-.001 2.809-.363 3.844-1.089zM2899.533 12.101v27.185h-5.398V27.751h-11.146v11.534h-5.397V12.101h5.397v11.418h11.146V12.101h5.398zM2919.571 32.605h-9.32l-2.175 6.68h-5.437l9.786-27.185h5.049l9.747 27.185h-5.437l-2.213-6.68zm-1.359-4.155l-3.223-9.67h-.233l-3.146 9.67h6.602zm-5.437-19.301l3.922-7.573h5.32l-4.971 7.612-4.271-.039zM2939.104 12.101h6.252l11.107 18.874h.077V12.101h5.359v27.224h-6.291l-11.029-18.33h-.116v18.33h-5.359V12.101zM2971.085 37.615c-1.773-1.32-3.094-3.042-3.961-5.165-.868-2.123-1.301-4.375-1.301-6.757 0-2.46.452-4.764 1.359-6.913.905-2.148 2.284-3.89 4.136-5.223 1.851-1.333 4.122-2 6.815-2 3.081 0 5.599.854 7.554 2.563 1.954 1.708 3.32 3.91 4.097 6.602h-5.67c-.414-1.398-1.113-2.485-2.097-3.262-.984-.777-2.267-1.165-3.845-1.165-2.228 0-3.936.861-5.127 2.583-1.19 1.722-1.786 4.033-1.786 6.932 0 3.004.628 5.334 1.884 6.99 1.255 1.657 3.01 2.485 5.262 2.485 1.968 0 3.482-.602 4.544-1.806 1.062-1.204 1.618-2.66 1.67-4.369v-.621h-5.709v-3.884h10.952v14.68h-4v-4.039h-.312c-.414.674-.822 1.269-1.223 1.787-.402.518-1.179 1.074-2.33 1.669-1.152.596-2.622.894-4.408.894-2.562 0-4.731-.66-6.504-1.981zM3009.744 32.605h-9.32l-2.175 6.68h-5.437l9.786-27.185h5.049l9.747 27.185h-5.437l-2.213-6.68zm-1.359-4.155l-3.223-9.67h-.233l-3.146 9.67h6.602zM3025.201 39.285v-9.437l-8.933-17.748h5.631l5.864 12.271h.233l5.786-12.271h5.67l-8.932 17.748v9.437h-5.319z"/></g><g fill="#ffffff"><path d="M2734.513 22.975h3.192v6.617h.116l5.686-6.617h3.728l-6.011 6.943 6.128 9.367h-3.635l-4.497-7.153-1.515 1.678v5.476h-3.192V22.975zM2762.894 22.975v16.311h-3.239v-6.92h-6.688v6.92h-3.239V22.975h3.239v6.851h6.688v-6.851h3.239zM2774.917 35.277h-5.592l-1.305 4.008h-3.262l5.872-16.311h3.029l5.849 16.311h-3.262l-1.329-4.008zm-.816-2.493l-1.934-5.802h-.14l-1.887 5.802h3.961zm-3.262-11.581l2.353-4.543h3.192l-2.982 4.567-2.563-.024zM2781.278 22.975h4.8l3.612 10.043h.07l3.612-10.043h4.8v16.311h-3.169V27.588h-.116l-4.101 11.697h-2.097l-4.124-11.697h-.117v11.697h-3.169v-16.31zM2815.506 23.767c.886.528 1.538 1.22 1.958 2.074.42.854.629 1.771.629 2.749 0 .978-.206 1.884-.617 2.715-.412.831-1.061 1.503-1.946 2.016-.885.513-1.989.769-3.309.769h-2.866v5.196h-3.169V22.975h6.035c1.305 0 2.4.264 3.285.792zm-1.467 7.013c.621-.435.932-1.165.932-2.19s-.307-1.743-.92-2.155c-.614-.411-1.387-.617-2.318-.617h-2.377v5.615h2.377c.915 0 1.684-.217 2.306-.653zM2833.285 22.975v16.311h-3.239v-6.92h-6.688v6.92h-3.239V22.975h3.239v6.851h6.688v-6.851h3.239zM2845.308 35.277h-5.592l-1.305 4.008h-3.262l5.872-16.311h3.029l5.849 16.311h-3.262l-1.329-4.008zm-.816-2.493l-1.934-5.802h-.14l-1.887 5.802h3.961zm-3.262-11.581l2.353-4.543h3.192l-2.982 4.567-2.563-.024zM2857.028 22.975h3.752l6.664 11.324h.046V22.975h3.216v16.334h-3.774l-6.618-10.998h-.069v10.998h-3.216V22.975zM2876.217 38.283c-1.064-.792-1.856-1.825-2.377-3.099-.521-1.274-.78-2.625-.78-4.055 0-1.476.271-2.858.815-4.147.544-1.289 1.371-2.334 2.481-3.134 1.11-.8 2.474-1.2 4.09-1.2 1.848 0 3.358.513 4.531 1.538 1.173 1.024 1.992 2.346 2.459 3.961h-3.402c-.249-.839-.668-1.491-1.258-1.957-.591-.467-1.36-.699-2.308-.699-1.336 0-2.361.517-3.075 1.549-.715 1.034-1.072 2.42-1.072 4.16 0 1.802.377 3.2 1.131 4.193.753.995 1.806 1.491 3.157 1.491 1.18 0 2.089-.36 2.726-1.083s.971-1.597 1.002-2.621v-.373h-3.425v-2.33h6.57v8.808h-2.399v-2.423h-.187c-.249.403-.493.761-.734 1.071-.241.31-.707.645-1.397 1.002-.691.357-1.573.536-2.646.536-1.537.001-2.839-.396-3.902-1.188zM2899.412 35.277h-5.593l-1.305 4.008h-3.262l5.872-16.311h3.028l5.849 16.311h-3.262l-1.327-4.008zm-.815-2.493l-1.935-5.802h-.14l-1.888 5.802h3.963zM2908.686 39.285v-5.662l-5.358-10.648h3.378l3.519 7.363h.14l3.472-7.363h3.402l-5.359 10.648v5.662h-3.194z"/></g></g><g><path d="M3040 10.461h14.48l13.673 13.991-13.754 13.989H3040l13.428-13.989z" fill="#facfb4" fill-opacity=".268084"/><path d="M3060.51 10.461h14.48l13.673 13.991-13.755 13.989h-14.398l13.428-13.989z" fill="#f8b88d" fill-opacity=".20563"/><path d="M3081.019 10.46h14.481l13.673 13.992-13.755 13.989h-14.399l13.429-13.989z" fill="#f8a169" fill-opacity=".263379"/><g fill="#965a5a"><path d="M3114.913 12.101h5.321V23.13h.194l9.476-11.029h6.213l-10.02 11.573 10.214 15.611h-6.059l-7.495-11.922-2.524 2.796v9.126h-5.321V12.101zM3162.214 12.101v27.185h-5.398V27.751h-11.146v11.534h-5.398V12.101h5.398v11.418h11.146V12.101h5.398zM3182.252 32.605h-9.32l-2.175 6.68h-5.437l9.787-27.185h5.048l9.748 27.185h-5.437l-2.214-6.68zm-1.359-4.155l-3.223-9.67h-.233l-3.146 9.67h6.602zm-5.436-19.301l3.922-7.573h5.32l-4.971 7.612-4.271-.039zM3192.854 12.101h8l6.02 16.738h.117l6.02-16.738h8v27.185h-5.282V19.79h-.194l-6.835 19.495h-3.495l-6.875-19.495h-.194v19.495h-5.282V12.101zM3249.903 13.421c1.476.88 2.563 2.033 3.262 3.457.699 1.424 1.049 2.951 1.049 4.583 0 1.631-.344 3.14-1.029 4.524-.687 1.385-1.768 2.505-3.243 3.359-1.475.854-3.314 1.281-5.515 1.281h-4.776v8.66h-5.282V12.101h10.059c2.174 0 3.999.44 5.475 1.32zm-2.447 11.689c1.035-.725 1.554-1.941 1.554-3.65 0-1.709-.512-2.906-1.534-3.592-1.023-.686-2.311-1.029-3.864-1.029h-3.961v9.36h3.961c1.527-.001 2.809-.363 3.844-1.089zM3279.533 12.101v27.185h-5.398V27.751h-11.146v11.534h-5.397V12.101h5.397v11.418h11.146V12.101h5.398zM3299.571 32.605h-9.32l-2.175 6.68h-5.437l9.786-27.185h5.049l9.747 27.185h-5.437l-2.213-6.68zm-1.359-4.155l-3.223-9.67h-.233l-3.146 9.67h6.602zm-5.437-19.301l3.922-7.573h5.32l-4.971 7.612-4.271-.039zM3319.104 12.101h6.252l11.107 18.874h.077V12.101h5.359v27.224h-6.291l-11.029-18.33h-.116v18.33h-5.359V12.101zM3351.085 37.615c-1.773-1.32-3.094-3.042-3.961-5.165-.868-2.123-1.301-4.375-1.301-6.757 0-2.46.452-4.764 1.359-6.913.905-2.148 2.284-3.89 4.136-5.223 1.851-1.333 4.122-2 6.815-2 3.081 0 5.599.854 7.554 2.563 1.954 1.708 3.32 3.91 4.097 6.602h-5.67c-.414-1.398-1.113-2.485-2.097-3.262-.984-.777-2.267-1.165-3.845-1.165-2.228 0-3.936.861-5.127 2.583-1.19 1.722-1.786 4.033-1.786 6.932 0 3.004.628 5.334 1.884 6.99 1.255 1.657 3.01 2.485 5.262 2.485 1.968 0 3.482-.602 4.544-1.806 1.062-1.204 1.618-2.66 1.67-4.369v-.621h-5.709v-3.884h10.952v14.68h-4v-4.039h-.312c-.414.674-.822 1.269-1.223 1.787-.402.518-1.179 1.074-2.33 1.669-1.152.596-2.622.894-4.408.894-2.562 0-4.731-.66-6.504-1.981zM3389.744 32.605h-9.32l-2.175 6.68h-5.437l9.786-27.185h5.049l9.747 27.185h-5.437l-2.213-6.68zm-1.359-4.155l-3.223-9.67h-.233l-3.146 9.67h6.602zM3405.201 39.285v-9.437l-8.933-17.748h5.631l5.864 12.271h.233l5.786-12.271h5.67l-8.932 17.748v9.437h-5.319z"/></g><g fill="#ffffff"><path d="M3114.513 22.975h3.192v6.617h.116l5.686-6.617h3.728l-6.011 6.943 6.128 9.367h-3.635l-4.497-7.153-1.515 1.678v5.476h-3.192V22.975zM3142.894 22.975v16.311h-3.239v-6.92h-6.688v6.92h-3.239V22.975h3.239v6.851h6.688v-6.851h3.239zM3154.917 35.277h-5.592l-1.305 4.008h-3.262l5.872-16.311h3.029l5.849 16.311h-3.262l-1.329-4.008zm-.816-2.493l-1.934-5.802h-.14l-1.887 5.802h3.961zm-3.262-11.581l2.353-4.543h3.192l-2.982 4.567-2.563-.024zM3161.278 22.975h4.8l3.612 10.043h.07l3.612-10.043h4.8v16.311h-3.169V27.588h-.116l-4.101 11.697h-2.097l-4.124-11.697h-.117v11.697h-3.169v-16.31zM3195.506 23.767c.886.528 1.538 1.22 1.958 2.074.42.854.629 1.771.629 2.749 0 .978-.206 1.884-.617 2.715-.412.831-1.061 1.503-1.946 2.016-.885.513-1.989.769-3.309.769h-2.866v5.196h-3.169V22.975h6.035c1.305 0 2.4.264 3.285.792zm-1.467 7.013c.621-.435.932-1.165.932-2.19s-.307-1.743-.92-2.155c-.614-.411-1.387-.617-2.318-.617h-2.377v5.615h2.377c.915 0 1.684-.217 2.306-.653zM3213.285 22.975v16.311h-3.239v-6.92h-6.688v6.92h-3.239V22.975h3.239v6.851h6.688v-6.851h3.239zM3225.308 35.277h-5.592l-1.305 4.008h-3.262l5.872-16.311h3.029l5.849 16.311h-3.262l-1.329-4.008zm-.816-2.493l-1.934-5.802h-.14l-1.887 5.802h3.961zm-3.262-11.581l2.353-4.543h3.192l-2.982 4.567-2.563-.024zM3237.028 22.975h3.752l6.664 11.324h.046V22.975h3.216v16.334h-3.774l-6.618-10.998h-.069v10.998h-3.216V22.975zM3256.217 38.283c-1.064-.792-1.856-1.825-2.377-3.099-.521-1.274-.78-2.625-.78-4.055 0-1.476.271-2.858.815-4.147.544-1.289 1.371-2.334 2.481-3.134 1.11-.8 2.474-1.2 4.09-1.2 1.848 0 3.358.513 4.531 1.538 1.173 1.024 1.992 2.346 2.459 3.961h-3.402c-.249-.839-.668-1.491-1.258-1.957-.591-.467-1.36-.699-2.308-.699-1.336 0-2.361.517-3.075 1.549-.715 1.034-1.072 2.42-1.072 4.16 0 1.802.377 3.2 1.131 4.193.753.995 1.806 1.491 3.157 1.491 1.18 0 2.089-.36 2.726-1.083s.971-1.597 1.002-2.621v-.373h-3.425v-2.33h6.57v8.808h-2.399v-2.423h-.187c-.249.403-.493.761-.734 1.071-.241.31-.707.645-1.397 1.002-.691.357-1.573.536-2.646.536-1.537.001-2.839-.396-3.902-1.188zM3279.412 35.277h-5.593l-1.305 4.008h-3.262l5.872-16.311h3.028l5.849 16.311h-3.262l-1.327-4.008zm-.815-2.493l-1.935-5.802h-.14l-1.888 5.802h3.963zM3288.686 39.285v-5.662l-5.358-10.648h3.378l3.519 7.363h.14l3.472-7.363h3.402l-5.359 10.648v5.662h-3.194z"/></g></g><g><path d="M3420 10.461h14.48l13.673 13.991-13.754 13.989H3420l13.428-13.989z" fill="#facfb4" fill-opacity=".38927"/><path d="M3440.51 10.461h14.48l13.673 13.991-13.755 13.989h-14.398l13.428-13.989z" fill="#f8b88d" fill-opacity=".2"/><path d="M3461.019 10.46h14.481l13.673 13.992-13.755 13.989h-14.399l13.429-13.989z" fill="#f8a169" fill-opacity=".232506"/><g fill="#965a5a"><path d="M3494.913 12.101h5.321V23.13h.194l9.476-11.029h6.213l-10.02 11.573 10.214 15.611h-6.059l-7.495-11.922-2.524 2.796v9.126h-5.321V12.101zM3542.214 12.101v27.185h-5.398V27.751h-11.146v11.534h-5.398V12.101h5.398v11.418h11.146V12.101h5.398zM3562.252 32.605h-9.32l-2.175 6.68h-5.437l9.787-27.185h5.048l9.748 27.185h-5.437l-2.214-6.68zm-1.359-4.155l-3.223-9.67h-.233l-3.146 9.67h6.602zm-5.436-19.301l3.922-7.573h5.32l-4.971 7.612-4.271-.039zM3572.854 12.101h8l6.02 16.738h.117l6.02-16.738h8v27.185h-5.282V19.79h-.194l-6.835 19.495h-3.495l-6.875-19.495h-.194v19.495h-5.282V12.101zM3629.903 13.421c1.476.88 2.563 2.033 3.262 3.457.699 1.424 1.049 2.951 1.049 4.583 0 1.631-.344 3.14-1.029 4.524-.687 1.385-1.768 2.505-3.243 3.359-1.475.854-3.314 1.281-5.515 1.281h-4.776v8.66h-5.282V12.101h10.059c2.174 0 3.999.44 5.475 1.32zm-2.447 11.689c1.035-.725 1.554-1.941 1.554-3.65 0-1.709-.512-2.906-1.534-3.592-1.023-.686-2.311-1.029-3.864-1.029h-3.961v9.36h3.961c1.527-.001 2.809-.363 3.844-1.089zM3659.533 12.101v27.185h-5.398V27.751h-11.146v11.534h-5.397V12.101h5.397v11.418h11.146V12.101h5.398zM3679.571 32.605h-9.32l-2.175 6.68h-5.437l9.786-27.185h5.049l9.747 27.185h-5.437l-2.213-6.68zm-1.359-4.155l-3.223-9.67h-.233l-3.146 9.67h6.602zm-5.437-19.301l3.922-7.573h5.32l-4.971 7.612-4.271-.039zM3699.104 12.101h6.252l11.107 18.874h.077V12.101h5.359v27.224h-6.291l-11.029-18.33h-.116v18.33h-5.359V12.101zM3731.085 37.615c-1.773-1.32-3.094-3.042-3.961-5.165-.868-2.123-1.301-4.375-1.301-6.757 0-2.46.452-4.764 1.359-6.913.905-2.148 2.284-3.89 4.136-5.223 1.851-1.333 4.122-2 6.815-2 3.081 0 5.599.854 7.554 2.563 1.954 1.708 3.32 3.91 4.097 6.602h-5.67c-.414-1.398-1.113-2.485-2.097-3.262-.984-.777-2.267-1.165-3.845-1.165-2.228 0-3.936.861-5.127 2.583-1.19 1.722-1.786 4.033-1.786 6.932 0 3.004.628 5.334 1.884 6.99 1.255 1.657 3.01 2.485 5.262 2.485 1.968 0 3.482-.602 4.544-1.806 1.062-1.204 1.618-2.66 1.67-4.369v-.621h-5.709v-3.884h10.952v14.68h-4v-4.039h-.312c-.414.674-.822 1.269-1.223 1.787-.402.518-1.179 1.074-2.33 1.669-1.152.596-2.622.894-4.408.894-2.562 0-4.731-.66-6.504-1.981zM3769.744 32.605h-9.32l-2.175 6.68h-5.437l9.786-27.185h5.049l9.747 27.185h-5.437l-2.213-6.68zm-1.359-4.155l-3.223-9.67h-.233l-3.146 9.67h6.602zM3785.201 39.285v-9.437l-8.933-17.748h5.631l5.864 12.271h.233l5.786-12.271h5.67l-8.932 17.748v9.437h-5.319z"/></g><g fill="#ffffff"><path d="M3494.513 22.975h3.192v6.617h.116l5.686-6.617h3.728l-6.011 6.943 6.128 9.367h-3.635l-4.497-7.153-1.515 1.678v5.476h-3.192V22.975zM3522.894 22.975v16.311h-3.239v-6.92h-6.688v6.92h-3.239V22.975h3.239v6.851h6.688v-6.851h3.239zM3534.917 35.277h-5.592l-1.305 4.008h-3.262l5.872-16.311h3.029l5.849 16.311h-3.262l-1.329-4.008zm-.816-2.493l-1.934-5.802h-.14l-1.887 5.802h3.961zm-3.262-11.581l2.353-4.543h3.192l-2.982 4.567-2.563-.024zM3541.278 22.975h4.8l3.612 10.043h.07l3.612-10.043h4.8v16.311h-3.169V27.588h-.116l-4.101 11.697h-2.097l-4.124-11.697h-.117v11.697h-3.169v-16.31zM3575.506 23.767c.886.528 1.538 1.22 1.958 2.074.42.854.629 1.771.629 2.749 0 .978-.206 1.884-.617 2.715-.412.831-1.061 1.503-1.946 2.016-.885.513-1.989.769-3.309.769h-2.866v5.196h-3.169V22.975h6.035c1.305 0 2.4.264 3.285.792zm-1.467 7.013c.621-.435.932-1.165.932-2.19s-.307-1.743-.92-2.155c-.614-.411-1.387-.617-2.318-.617h-2.377v5.615h2.377c.915 0 1.684-.217 2.306-.653zM3593.285 22.975v16.311h-3.239v-6.92h-6.688v6.92h-3.239V22.975h3.239v6.851h6.688v-6.851h3.239zM3605.308 35.277h-5.592l-1.305 4.008h-3.262l5.872-16.311h3.029l5.849 16.311h-3.262l-1.329-4.008zm-.816-2.493l-1.934-5.802h-.14l-1.887 5.802h3.961zm-3.262-11.581l2.353-4.543h3.192l-2.982 4.567-2.563-.024zM3617.028 22.975h3.752l6.664 11.324h.046V22.975h3.216v16.334h-3.774l-6.618-10.998h-.069v10.998h-3.216V22.975zM3636.217 38.283c-1.064-.792-1.856-1.825-2.377-3.099-.521-1.274-.78-2.625-.78-4.055 0-1.476.271-2.858.815-4.147.544-1.289 1.371-2.334 2.481-3.134 1.11-.8 2.474-1.2 4.09-1.2 1.848 0 3.358.513 4.531 1.538 1.173 1.024 1.992 2.346 2.459 3.961h-3.402c-.249-.839-.668-1.491-1.258-1.957-.591-.467-1.36-.699-2.308-.699-1.336 0-2.361.517-3.075 1.549-.715 1.034-1.072 2.42-1.072 4.16 0 1.802.377 3.2 1.131 4.193.753.995 1.806 1.491 3.157 1.491 1.18 0 2.089-.36 2.726-1.083s.971-1.597 1.002-2.621v-.373h-3.425v-2.33h6.57v8.808h-2.399v-2.423h-.187c-.249.403-.493.761-.734 1.071-.241.31-.707.645-1.397 1.002-.691.357-1.573.536-2.646.536-1.537.001-2.839-.396-3.902-1.188zM3659.412 35.277h-5.593l-1.305 4.008h-3.262l5.872-16.311h3.028l5.849 16.311h-3.262l-1.327-4.008zm-.815-2.493l-1.935-5.802h-.14l-1.888 5.802h3.963zM3668.686 39.285v-5.662l-5.358-10.648h3.378l3.519 7.363h.14l3.472-7.363h3.402l-5.359 10.648v5.662h-3.194z"/></g></g><g><path d="M3800 10.461h14.48l13.673 13.991-13.754 13.989H3800l13.428-13.989z" fill="#facfb4" fill-opacity=".565801"/><path d="M3820.51 10.461h14.48l13.673 13.991-13.755 13.989h-14.398l13.428-13.989z" fill="#f8b88d" fill-opacity=".226241"/><path d="M3841.019 10.46h14.481l13.673 13.992-13.755 13.989h-14.399l13.429-13.989z" fill="#f8a169" fill-opacity=".213313"/><g fill="#965a5a"><path d="M3874.913 12.101h5.321V23.13h.194l9.476-11.029h6.213l-10.02 11.573 10.214 15.611h-6.059l-7.495-11.922-2.524 2.796v9.126h-5.321V12.101zM3922.214 12.101v27.185h-5.398V27.751h-11.146v11.534h-5.398V12.101h5.398v11.418h11.146V12.101h5.398zM3942.252 32.605h-9.32l-2.175 6.68h-5.437l9.787-27.185h5.048l9.748 27.185h-5.437l-2.214-6.68zm-1.359-4.155l-3.223-9.67h-.233l-3.146 9.67h6.602zm-5.436-19.301l3.922-7.573h5.32l-4.971 7.612-4.271-.039zM3952.854 12.101h8l6.02 16.738h.117l6.02-16.738h8v27.185h-5.282V19.79h-.194l-6.835 19.495h-3.495l-6.875-19.495h-.194v19.495h-5.282V12.101zM4009.903 13.421c1.476.88 2.563 2.033 3.262 3.457.699 1.424 1.049 2.951 1.049 4.583 0 1.631-.344 3.14-1.029 4.524-.687 1.385-1.768 2.505-3.243 3.359-1.475.854-3.314 1.281-5.515 1.281h-4.776v8.66h-5.282V12.101h10.059c2.174 0 3.999.44 5.475 1.32zm-2.447 11.689c1.035-.725 1.554-1.941 1.554-3.65 0-1.709-.512-2.906-1.534-3.592-1.023-.686-2.311-1.029-3.864-1.029h-3.961v9.36h3.961c1.527-.001 2.809-.363 3.844-1.089zM4039.533 12.101v27.185h-5.398V27.751h-11.146v11.534h-5.397V12.101h5.397v11.418h11.146V12.101h5.398zM4059.571 32.605h-9.32l-2.175 6.68h-5.437l9.786-27.185h5.049l9.747 27.185h-5.437l-2.213-6.68zm-1.359-4.155l-3.223-9.67h-.233l-3.146 9.67h6.602zm-5.437-19.301l3.922-7.573h5.32l-4.971 7.612-4.271-.039zM4079.104 12.101h6.252l11.107 18.874h.077V12.101h5.359v27.224h-6.291l-11.029-18.33h-.116v18.33h-5.359V12.101zM4111.085 37.615c-1.773-1.32-3.094-3.042-3.961-5.165-.868-2.123-1.301-4.375-1.301-6.757 0-2.46.452-4.764 1.359-6.913.905-2.148 2.284-3.89 4.136-5.223 1.851-1.333 4.122-2 6.815-2 3.081 0 5.599.854 7.554 2.563 1.954 1.708 3.32 3.91 4.097 6.602h-5.67c-.414-1.398-1.113-2.485-2.097-3.262-.984-.777-2.267-1.165-3.845-1.165-2.228 0-3.936.861-5.127 2.583-1.19 1.722-1.786 4.033-1.786 6.932 0 3.004.628 5.334 1.884 6.99 1.255 1.657 3.01 2.485 5.262 2.485 1.968 0 3.482-.602 4.544-1.806 1.062-1.204 1.618-2.66 1.67-4.369v-.621h-5.709v-3.884h10.952v14.68h-4v-4.039h-.312c-.414.674-.822 1.269-1.223 1.787-.402.518-1.179 1.074-2.33 1.669-1.152.596-2.622.894-4.408.894-2.562 0-4.731-.66-6.504-1.981zM4149.744 32.605h-9.32l-2.175 6.68h-5.437l9.786-27.185h5.049l9.747 27.185h-5.437l-2.213-6.68zm-1.359-4.155l-3.223-9.67h-.233l-3.146 9.67h6.602zM4165.201 39.285v-9.437l-8.933-17.748h5.631l5.864 12.271h.233l5.786-12.271h5.67l-8.932 17.748v9.437h-5.319z"/></g><g fill="#ffffff"><path d="M3874.513 22.975h3.192v6.617h.116l5.686-6.617h3.728l-6.011 6.943 6.128 9.367h-3.635l-4.497-7.153-1.515 1.678v5.476h-3.192V22.975zM3902.894 22.975v16.311h-3.239v-6.92h-6.688v6.92h-3.239V22.975h3.239v6.851h6.688v-6.851h3.239zM3914.917 35.277h-5.592l-1.305 4.008h-3.262l5.872-16.311h3.029l5.849 16.311h-3.262l-1.329-4.008zm-.816-2.493l-1.934-5.802h-.14l-1.887 5.802h3.961zm-3.262-11.581l2.353-4.543h3.192l-2.982 4.567-2.563-.024zM3921.278 22.975h4.8l3.612 10.043h.07l3.612-10.043h4.8v16.311h-3.169V27.588h-.116l-4.101 11.697h-2.097l-4.124-11.697h-.117v11.697h-3.169v-16.31zM3955.506 23.767c.886.528 1.538 1.22 1.958 2.074.42.854.629 1.771.629 2.749 0 .978-.206 1.884-.617 2.715-.412.831-1.061 1.503-1.946 2.016-.885.513-1.989.769-3.309.769h-2.866v5.196h-3.169V22.975h6.035c1.305 0 2.4.264 3.285.792zm-1.467 7.013c.621-.435.932-1.165.932-2.19s-.307-1.743-.92-2.155c-.614-.411-1.387-.617-2.318-.617h-2.377v5.615h2.377c.915 0 1.684-.217 2.306-.653zM3973.285 22.975v16.311h-3.239v-6.92h-6.688v6.92h-3.239V22.975h3.239v6.851h6.688v-6.851h3.239zM3985.308 35.277h-5.592l-1.305 4.008h-3.262l5.872-16.311h3.029l5.849 16.311h-3.262l-1.329-4.008zm-.816-2.493l-1.934-5.802h-.14l-1.887 5.802h3.961zm-3.262-11.581l2.353-4.543h3.192l-2.982 4.567-2.563-.024zM3997.028 22.975h3.752l6.664 11.324h.046V22.975h3.216v16.334h-3.774l-6.618-10.998h-.069v10.998h-3.216V22.975zM4016.217 38.283c-1.064-.792-1.856-1.825-2.377-3.099-.521-1.274-.78-2.625-.78-4.055 0-1.476.271-2.858.815-4.147.544-1.289 1.371-2.334 2.481-3.134 1.11-.8 2.474-1.2 4.09-1.2 1.848 0 3.358.513 4.531 1.538 1.173 1.024 1.992 2.346 2.459 3.961h-3.402c-.249-.839-.668-1.491-1.258-1.957-.591-.467-1.36-.699-2.308-.699-1.336 0-2.361.517-3.075 1.549-.715 1.034-1.072 2.42-1.072 4.16 0 1.802.377 3.2 1.131 4.193.753.995 1.806 1.491 3.157 1.491 1.18 0 2.089-.36 2.726-1.083s.971-1.597 1.002-2.621v-.373h-3.425v-2.33h6.57v8.808h-2.399v-2.423h-.187c-.249.403-.493.761-.734 1.071-.241.31-.707.645-1.397 1.002-.691.357-1.573.536-2.646.536-1.537.001-2.839-.396-3.902-1.188zM4039.412 35.277h-5.593l-1.305 4.008h-3.262l5.872-16.311h3.028l5.849 16.311h-3.262l-1.327-4.008zm-.815-2.493l-1.935-5.802h-.14l-1.888 5.802h3.963zM4048.686 39.285v-5.662l-5.358-10.648h3.378l3.519 7.363h.14l3.472-7.363h3.402l-5.359 10.648v5.662h-3.194z"/></g></g><g><path d="M4180 10.461h14.48l13.673 13.991-13.754 13.989H4180l13.428-13.989z" fill="#facfb4" fill-opacity=".716997"/><path d="M4200.51 10.461h14.48l13.673 13.991-13.755 13.989h-14.398l13.428-13.989z" fill="#f8b88d" fill-opacity=".340135"/><path d="M4221.019 10.46h14.481l13.673 13.992-13.755 13.989h-14.399l13.429-13.989z" fill="#f8a169" fill-opacity=".203093"/><g fill="#965a5a"><path d="M4254.913 12.101h5.321V23.13h.194l9.476-11.029h6.213l-10.02 11.573 10.214 15.611h-6.059l-7.495-11.922-2.524 2.796v9.126h-5.321V12.101zM4302.214 12.101v27.185h-5.398V27.751h-11.146v11.534h-5.398V12.101h5.398v11.418h11.146V12.101h5.398zM4322.252 32.605h-9.32l-2.175 6.68h-5.437l9.787-27.185h5.048l9.748 27.185h-5.437l-2.214-6.68zm-1.359-4.155l-3.223-9.67h-.233l-3.146 9.67h6.602zm-5.436-19.301l3.922-7.573h5.32l-4.971 7.612-4.271-.039zM4332.854 12.101h8l6.02 16.738h.117l6.02-16.738h8v27.185h-5.282V19.79h-.194l-6.835 19.495h-3.495l-6.875-19.495h-.194v19.495h-5.282V12.101zM4389.903 13.421c1.476.88 2.563 2.033 3.262 3.457.699 1.424 1.049 2.951 1.049 4.583 0 1.631-.344 3.14-1.029 4.524-.687 1.385-1.768 2.505-3.243 3.359-1.475.854-3.314 1.281-5.515 1.281h-4.776v8.66h-5.282V12.101h10.059c2.174 0 3.999.44 5.475 1.32zm-2.447 11.689c1.035-.725 1.554-1.941 1.554-3.65 0-1.709-.512-2.906-1.534-3.592-1.023-.686-2.311-1.029-3.864-1.029h-3.961v9.36h3.961c1.527-.001 2.809-.363 3.844-1.089zM4419.533 12.101v27.185h-5.398V27.751h-11.146v11.534h-5.397V12.101h5.397v11.418h11.146V12.101h5.398zM4439.571 32.605h-9.32l-2.175 6.68h-5.437l9.786-27.185h5.049l9.747 27.185h-5.437l-2.213-6.68zm-1.359-4.155l-3.223-9.67h-.233l-3.146 9.67h6.602zm-5.437-19.301l3.922-7.573h5.32l-4.971 7.612-4.271-.039zM4459.104 12.101h6.252l11.107 18.874h.077V12.101h5.359v27.224h-6.291l-11.029-18.33h-.116v18.33h-5.359V12.101zM4491.085 37.615c-1.773-1.32-3.094-3.042-3.961-5.165-.868-2.123-1.301-4.375-1.301-6.757 0-2.46.452-4.764 1.359-6.913.905-2.148 2.284-3.89 4.136-5.223 1.851-1.333 4.122-2 6.815-2 3.081 0 5.599.854 7.554 2.563 1.954 1.708 3.32 3.91 4.097 6.602h-5.67c-.414-1.398-1.113-2.485-2.097-3.262-.984-.777-2.267-1.165-3.845-1.165-2.228 0-3.936.861-5.127 2.583-1.19 1.722-1.786 4.033-1.786 6.932 0 3.004.628 5.334 1.884 6.99 1.255 1.657 3.01 2.485 5.262 2.485 1.968 0 3.482-.602 4.544-1.806 1.062-1.204 1.618-2.66 1.67-4.369v-.621h-5.709v-3.884h10.952v14.68h-4v-4.039h-.312c-.414.674-.822 1.269-1.223 1.787-.402.518-1.179 1.074-2.33 1.669-1.152.596-2.622.894-4.408.894-2.562 0-4.731-.66-6.504-1.981zM4529.744 32.605h-9.32l-2.175 6.68h-5.437l9.786-27.185h5.049l9.747 27.185h-5.437l-2.213-6.68zm-1.359-4.155l-3.223-9.67h-.233l-3.146 9.67h6.602zM4545.201 39.285v-9.437l-8.933-17.748h5.631l5.864 12.271h.233l5.786-12.271h5.67l-8.932 17.748v9.437h-5.319z"/></g><g fill="#ffffff"><path d="M4254.513 22.975h3.192v6.617h.116l5.686-6.617h3.728l-6.011 6.943 6.128 9.367h-3.635l-4.497-7.153-1.515 1.678v5.476h-3.192V22.975zM4282.894 22.975v16.311h-3.239v-6.92h-6.688v6.92h-3.239V22.975h3.239v6.851h6.688v-6.851h3.239zM4294.917 35.277h-5.592l-1.305 4.008h-3.262l5.872-16.311h3.029l5.849 16.311h-3.262l-1.329-4.008zm-.816-2.493l-1.934-5.802h-.14l-1.887 5.802h3.961zm-3.262-11.581l2.353-4.543h3.192l-2.982 4.567-2.563-.024zM4301.278 22.975h4.8l3.612 10.043h.07l3.612-10.043h4.8v16.311h-3.169V27.588h-.116l-4.101 11.697h-2.097l-4.124-11.697h-.117v11.697h-3.169v-16.31zM4335.506 23.767c.886.528 1.538 1.22 1.958 2.074.42.854.629 1.771.629 2.749 0 .978-.206 1.884-.617 2.715-.412.831-1.061 1.503-1.946 2.016-.885.513-1.989.769-3.309.769h-2.866v5.196h-3.169V22.975h6.035c1.305 0 2.4.264 3.285.792zm-1.467 7.013c.621-.435.932-1.165.932-2.19s-.307-1.743-.92-2.155c-.614-.411-1.387-.617-2.318-.617h-2.377v5.615h2.377c.915 0 1.684-.217 2.306-.653zM4353.285 22.975v16.311h-3.239v-6.92h-6.688v6.92h-3.239V22.975h3.239v6.851h6.688v-6.851h3.239zM4365.308 35.277h-5.592l-1.305 4.008h-3.262l5.872-16.311h3.029l5.849 16.311h-3.262l-1.329-4.008zm-.816-2.493l-1.934-5.802h-.14l-1.887 5.802h3.961zm-3.262-11.581l2.353-4.543h3.192l-2.982 4.567-2.563-.024zM4377.028 22.975h3.752l6.664 11.324h.046V22.975h3.216v16.334h-3.774l-6.618-10.998h-.069v10.998h-3.216V22.975zM4396.217 38.283c-1.064-.792-1.856-1.825-2.377-3.099-.521-1.274-.78-2.625-.78-4.055 0-1.476.271-2.858.815-4.147.544-1.289 1.371-2.334 2.481-3.134 1.11-.8 2.474-1.2 4.09-1.2 1.848 0 3.358.513 4.531 1.538 1.173 1.024 1.992 2.346 2.459 3.961h-3.402c-.249-.839-.668-1.491-1.258-1.957-.591-.467-1.36-.699-2.308-.699-1.336 0-2.361.517-3.075 1.549-.715 1.034-1.072 2.42-1.072 4.16 0 1.802.377 3.2 1.131 4.193.753.995 1.806 1.491 3.157 1.491 1.18 0 2.089-.36 2.726-1.083s.971-1.597 1.002-2.621v-.373h-3.425v-2.33h6.57v8.808h-2.399v-2.423h-.187c-.249.403-.493.761-.734 1.071-.241.31-.707.645-1.397 1.002-.691.357-1.573.536-2.646.536-1.537.001-2.839-.396-3.902-1.188zM4419.412 35.277h-5.593l-1.305 4.008h-3.262l5.872-16.311h3.028l5.849 16.311h-3.262l-1.327-4.008zm-.815-2.493l-1.935-5.802h-.14l-1.888 5.802h3.963zM4428.686 39.285v-5.662l-5.358-10.648h3.378l3.519 7.363h.14l3.472-7.363h3.402l-5.359 10.648v5.662h-3.194z"/></g></g><g><path d="M4560 10.461h14.48l13.673 13.991-13.754 13.989H4560l13.428-13.989z" fill="#facfb4" fill-opacity=".820449"/><path d="M4580.51 10.461h14.48l13.673 13.991-13.755 13.989h-14.398l13.428-13.989z" fill="#f8b88d" fill-opacity=".565801"/><path d="M4601.019 10.46h14.481l13.673 13.992-13.755 13.989h-14.399l13.429-13.989z" fill="#f8a169" fill-opacity=".2"/><g fill="#965a5a"><path d="M4634.913 12.101h5.321V23.13h.194l9.476-11.029h6.213l-10.02 11.573 10.214 15.611h-6.059l-7.495-11.922-2.524 2.796v9.126h-5.321V12.101zM4682.214 12.101v27.185h-5.398V27.751h-11.146v11.534h-5.398V12.101h5.398v11.418h11.146V12.101h5.398zM4702.252 32.605h-9.32l-2.175 6.68h-5.437l9.787-27.185h5.048l9.748 27.185h-5.437l-2.214-6.68zm-1.359-4.155l-3.223-9.67h-.233l-3.146 9.67h6.602zm-5.436-19.301l3.922-7.573h5.32l-4.971 7.612-4.271-.039zM4712.854 12.101h8l6.02 16.738h.117l6.02-16.738h8v27.185h-5.282V19.79h-.194l-6.835 19.495h-3.495l-6.875-19.495h-.194v19.495h-5.282V12.101zM4769.903 13.421c1.476.88 2.563 2.033 3.262 3.457.699 1.424 1.049 2.951 1.049 4.583 0 1.631-.344 3.14-1.029 4.524-.687 1.385-1.768 2.505-3.243 3.359-1.475.854-3.314 1.281-5.515 1.281h-4.776v8.66h-5.282V12.101h10.059c2.174 0 3.999.44 5.475 1.32zm-2.447 11.689c1.035-.725 1.554-1.941 1.554-3.65 0-1.709-.512-2.906-1.534-3.592-1.023-.686-2.311-1.029-3.864-1.029h-3.961v9.36h3.961c1.527-.001 2.809-.363 3.844-1.089zM4799.533 12.101v27.185h-5.398V27.751h-11.146v11.534h-5.397V12.101h5.397v11.418h11.146V12.101h5.398zM4819.571 32.605h-9.32l-2.175 6.68h-5.437l9.786-27.185h5.049l9.747 27.185h-5.437l-2.213-6.68zm-1.359-4.155l-3.223-9.67h-.233l-3.146 9.67h6.602zm-5.437-19.301l3.922-7.573h5.32l-4.971 7.612-4.271-.039zM4839.104 12.101h6.252l11.107 18.874h.077V12.101h5.359v27.224h-6.291l-11.029-18.33h-.116v18.33h-5.359V12.101zM4871.085 37.615c-1.773-1.32-3.094-3.042-3.961-5.165-.868-2.123-1.301-4.375-1.301-6.757 0-2.46.452-4.764 1.359-6.913.905-2.148 2.284-3.89 4.136-5.223 1.851-1.333 4.122-2 6.815-2 3.081 0 5.599.854 7.554 2.563 1.954 1.708 3.32 3.91 4.097 6.602h-5.67c-.414-1.398-1.113-2.485-2.097-3.262-.984-.777-2.267-1.165-3.845-1.165-2.228 0-3.936.861-5.127 2.583-1.19 1.722-1.786 4.033-1.786 6.932 0 3.004.628 5.334 1.884 6.99 1.255 1.657 3.01 2.485 5.262 2.485 1.968 0 3.482-.602 4.544-1.806 1.062-1.204 1.618-2.66 1.67-4.369v-.621h-5.709v-3.884h10.952v14.68h-4v-4.039h-.312c-.414.674-.822 1.269-1.223 1.787-.402.518-1.179 1.074-2.33 1.669-1.152.596-2.622.894-4.408.894-2.562 0-4.731-.66-6.504-1.981zM4909.744 32.605h-9.32l-2.175 6.68h-5.437l9.786-27.185h5.049l9.747 27.185h-5.437l-2.213-6.68zm-1.359-4.155l-3.223-9.67h-.233l-3.146 9.67h6.602zM4925.201 39.285v-9.437l-8.933-17.748h5.631l5.864 12.271h.233l5.786-12.271h5.67l-8.932 17.748v9.437h-5.319z"/></g><g fill="#ffffff"><path d="M4634.513 22.975h3.192v6.617h.116l5.686-6.617h3.728l-6.011 6.943 6.128 9.367h-3.635l-4.497-7.153-1.515 1.678v5.476h-3.192V22.975zM4662.894 22.975v16.311h-3.239v-6.92h-6.688v6.92h-3.239V22.975h3.239v6.851h6.688v-6.851h3.239zM4674.917 35.277h-5.592l-1.305 4.008h-3.262l5.872-16.311h3.029l5.849 16.311h-3.262l-1.329-4.008zm-.816-2.493l-1.934-5.802h-.14l-1.887 5.802h3.961zm-3.262-11.581l2.353-4.543h3.192l-2.982 4.567-2.563-.024zM4681.278 22.975h4.8l3.612 10.043h.07l3.612-10.043h4.8v16.311h-3.169V27.588h-.116l-4.101 11.697h-2.097l-4.124-11.697h-.117v11.697h-3.169v-16.31zM4715.506 23.767c.886.528 1.538 1.22 1.958 2.074.42.854.629 1.771.629 2.749 0 .978-.206 1.884-.617 2.715-.412.831-1.061 1.503-1.946 2.016-.885.513-1.989.769-3.309.769h-2.866v5.196h-3.169V22.975h6.035c1.305 0 2.4.264 3.285.792zm-1.467 7.013c.621-.435.932-1.165.932-2.19s-.307-1.743-.92-2.155c-.614-.411-1.387-.617-2.318-.617h-2.377v5.615h2.377c.915 0 1.684-.217 2.306-.653zM4733.285 22.975v16.311h-3.239v-6.92h-6.688v6.92h-3.239V22.975h3.239v6.851h6.688v-6.851h3.239zM4745.308 35.277h-5.592l-1.305 4.008h-3.262l5.872-16.311h3.029l5.849 16.311h-3.262l-1.329-4.008zm-.816-2.493l-1.934-5.802h-.14l-1.887 5.802h3.961zm-3.262-11.581l2.353-4.543h3.192l-2.982 4.567-2.563-.024zM4757.028 22.975h3.752l6.664 11.324h.046V22.975h3.216v16.334h-3.774l-6.618-10.998h-.069v10.998h-3.216V22.975zM4776.217 38.283c-1.064-.792-1.856-1.825-2.377-3.099-.521-1.274-.78-2.625-.78-4.055 0-1.476.271-2.858.815-4.147.544-1.289 1.371-2.334 2.481-3.134 1.11-.8 2.474-1.2 4.09-1.2 1.848 0 3.358.513 4.531 1.538 1.173 1.024 1.992 2.346 2.459 3.961h-3.402c-.249-.839-.668-1.491-1.258-1.957-.591-.467-1.36-.699-2.308-.699-1.336 0-2.361.517-3.075 1.549-.715 1.034-1.072 2.42-1.072 4.16 0 1.802.377 3.2 1.131 4.193.753.995 1.806 1.491 3.157 1.491 1.18 0 2.089-.36 2.726-1.083s.971-1.597 1.002-2.621v-.373h-3.425v-2.33h6.57v8.808h-2.399v-2.423h-.187c-.249.403-.493.761-.734 1.071-.241.31-.707.645-1.397 1.002-.691.357-1.573.536-2.646.536-1.537.001-2.839-.396-3.902-1.188zM4799.412 35.277h-5.593l-1.305 4.008h-3.262l5.872-16.311h3.028l5.849 16.311h-3.262l-1.327-4.008zm-.815-2.493l-1.935-5.802h-.14l-1.888 5.802h3.963zM4808.686 39.285v-5.662l-5.358-10.648h3.378l3.519 7.363h.14l3.472-7.363h3.402l-5.359 10.648v5.662h-3.194z"/></g></g><g><path d="M4940 10.461h14.48l13.673 13.991-13.754 13.989H4940l13.428-13.989z" fill="#facfb4" fill-opacity=".889881"/><path d="M4960.51 10.461h14.48l13.673 13.991-13.755 13.989h-14.398l13.428-13.989z" fill="#f8b88d" fill-opacity=".756188"/><path d="M4981.019 10.46h14.481l13.673 13.992-13.755 13.989h-14.399l13.429-13.989z" fill="#f8a169" fill-opacity=".268084"/><g fill="#965a5a"><path d="M5014.913 12.101h5.321V23.13h.194l9.476-11.029h6.213l-10.02 11.573 10.214 15.611h-6.059l-7.495-11.922-2.524 2.796v9.126h-5.321V12.101zM5062.214 12.101v27.185h-5.398V27.751h-11.146v11.534h-5.398V12.101h5.398v11.418h11.146V12.101h5.398zM5082.252 32.605h-9.32l-2.175 6.68h-5.437l9.787-27.185h5.048l9.748 27.185h-5.437l-2.214-6.68zm-1.359-4.155l-3.223-9.67h-.233l-3.146 9.67h6.602zm-5.436-19.301l3.922-7.573h5.32l-4.971 7.612-4.271-.039zM5092.854 12.101h8l6.02 16.738h.117l6.02-16.738h8v27.185h-5.282V19.79h-.194l-6.835 19.495h-3.495l-6.875-19.495h-.194v19.495h-5.282V12.101zM5149.903 13.421c1.476.88 2.563 2.033 3.262 3.457.699 1.424 1.049 2.951 1.049 4.583 0 1.631-.344 3.14-1.029 4.524-.687 1.385-1.768 2.505-3.243 3.359-1.475.854-3.314 1.281-5.515 1.281h-4.776v8.66h-5.282V12.101h10.059c2.174 0 3.999.44 5.475 1.32zm-2.447 11.689c1.035-.725 1.554-1.941 1.554-3.65 0-1.709-.512-2.906-1.534-3.592-1.023-.686-2.311-1.029-3.864-1.029h-3.961v9.36h3.961c1.527-.001 2.809-.363 3.844-1.089zM5179.533 12.101v27.185h-5.398V27.751h-11.146v11.534h-5.397V12.101h5.397v11.418h11.146V12.101h5.398zM5199.571 32.605h-9.32l-2.175 6.68h-5.437l9.786-27.185h5.049l9.747 27.185h-5.437l-2.213-6.68zm-1.359-4.155l-3.223-9.67h-.233l-3.146 9.67h6.602zm-5.437-19.301l3.922-7.573h5.32l-4.971 7.612-4.271-.039zM5219.104 12.101h6.252l11.107 18.874h.077V12.101h5.359v27.224h-6.291l-11.029-18.33h-.116v18.33h-5.359V12.101zM5251.085 37.615c-1.773-1.32-3.094-3.042-3.961-5.165-.868-2.123-1.301-4.375-1.301-6.757 0-2.46.452-4.764 1.359-6.913.905-2.148 2.284-3.89 4.136-5.223 1.851-1.333 4.122-2 6.815-2 3.081 0 5.599.854 7.554 2.563 1.954 1.708 3.32 3.91 4.097 6.602h-5.67c-.414-1.398-1.113-2.485-2.097-3.262-.984-.777-2.267-1.165-3.845-1.165-2.228 0-3.936.861-5.127 2.583-1.19 1.722-1.786 4.033-1.786 6.932 0 3.004.628 5.334 1.884 6.99 1.255 1.657 3.01 2.485 5.262 2.485 1.968 0 3.482-.602 4.544-1.806 1.062-1.204 1.618-2.66 1.67-4.369v-.621h-5.709v-3.884h10.952v14.68h-4v-4.039h-.312c-.414.674-.822 1.269-1.223 1.787-.402.518-1.179 1.074-2.33 1.669-1.152.596-2.622.894-4.408.894-2.562 0-4.731-.66-6.504-1.981zM5289.744 32.605h-9.32l-2.175 6.68h-5.437l9.786-27.185h5.049l9.747 27.185h-5.437l-2.213-6.68zm-1.359-4.155l-3.223-9.67h-.233l-3.146 9.67h6.602zM5305.201 39.285v-9.437l-8.933-17.748h5.631l5.864 12.271h.233l5.786-12.271h5.67l-8.932 17.748v9.437h-5.319z"/></g><g fill="#ffffff"><path d="M5014.513 22.975h3.192v6.617h.116l5.686-6.617h3.728l-6.011 6.943 6.128 9.367h-3.635l-4.497-7.153-1.515 1.678v5.476h-3.192V22.975zM5042.894 22.975v16.311h-3.239v-6.92h-6.688v6.92h-3.239V22.975h3.239v6.851h6.688v-6.851h3.239zM5054.917 35.277h-5.592l-1.305 4.008h-3.262l5.872-16.311h3.029l5.849 16.311h-3.262l-1.329-4.008zm-.816-2.493l-1.934-5.802h-.14l-1.887 5.802h3.961zm-3.262-11.581l2.353-4.543h3.192l-2.982 4.567-2.563-.024zM5061.278 22.975h4.8l3.612 10.043h.07l3.612-10.043h4.8v16.311h-3.169V27.588h-.116l-4.101 11.697h-2.097l-4.124-11.697h-.117v11.697h-3.169v-16.31zM5095.506 23.767c.886.528 1.538 1.22 1.958 2.074.42.854.629 1.771.629 2.749 0 .978-.206 1.884-.617 2.715-.412.831-1.061 1.503-1.946 2.016-.885.513-1.989.769-3.309.769h-2.866v5.196h-3.169V22.975h6.035c1.305 0 2.4.264 3.285.792zm-1.467 7.013c.621-.435.932-1.165.932-2.19s-.307-1.743-.92-2.155c-.614-.411-1.387-.617-2.318-.617h-2.377v5.615h2.377c.915 0 1.684-.217 2.306-.653zM5113.285 22.975v16.311h-3.239v-6.92h-6.688v6.92h-3.239V22.975h3.239v6.851h6.688v-6.851h3.239zM5125.308 35.277h-5.592l-1.305 4.008h-3.262l5.872-16.311h3.029l5.849 16.311h-3.262l-1.329-4.008zm-.816-2.493l-1.934-5.802h-.14l-1.887 5.802h3.961zm-3.262-11.581l2.353-4.543h3.192l-2.982 4.567-2.563-.024zM5137.028 22.975h3.752l6.664 11.324h.046V22.975h3.216v16.334h-3.774l-6.618-10.998h-.069v10.998h-3.216V22.975zM5156.217 38.283c-1.064-.792-1.856-1.825-2.377-3.099-.521-1.274-.78-2.625-.78-4.055 0-1.476.271-2.858.815-4.147.544-1.289 1.371-2.334 2.481-3.134 1.11-.8 2.474-1.2 4.09-1.2 1.848 0 3.358.513 4.531 1.538 1.173 1.024 1.992 2.346 2.459 3.961h-3.402c-.249-.839-.668-1.491-1.258-1.957-.591-.467-1.36-.699-2.308-.699-1.336 0-2.361.517-3.075 1.549-.715 1.034-1.072 2.42-1.072 4.16 0 1.802.377 3.2 1.131 4.193.753.995 1.806 1.491 3.157 1.491 1.18 0 2.089-.36 2.726-1.083s.971-1.597 1.002-2.621v-.373h-3.425v-2.33h6.57v8.808h-2.399v-2.423h-.187c-.249.403-.493.761-.734 1.071-.241.31-.707.645-1.397 1.002-.691.357-1.573.536-2.646.536-1.537.001-2.839-.396-3.902-1.188zM5179.412 35.277h-5.593l-1.305 4.008h-3.262l5.872-16.311h3.028l5.849 16.311h-3.262l-1.327-4.008zm-.815-2.493l-1.935-5.802h-.14l-1.888 5.802h3.963zM5188.686 39.285v-5.662l-5.358-10.648h3.378l3.519 7.363h.14l3.472-7.363h3.402l-5.359 10.648v5.662h-3.194z"/></g></g><g><path d="M5320 10.461h14.48l13.673 13.991-13.754 13.989H5320l13.428-13.989z" fill="#facfb4" fill-opacity=".936621"/><path d="M5340.51 10.461h14.48l13.673 13.991-13.755 13.989h-14.398l13.428-13.989z" fill="#f8b88d" fill-opacity=".869705"/><path d="M5361.019 10.46h14.481l13.673 13.992-13.755 13.989h-14.399l13.429-13.989z" fill="#f8a169" fill-opacity=".565801"/><g fill="#965a5a"><path d="M5394.913 12.101h5.321V23.13h.194l9.476-11.029h6.213l-10.02 11.573 10.214 15.611h-6.059l-7.495-11.922-2.524 2.796v9.126h-5.321V12.101zM5442.214 12.101v27.185h-5.398V27.751h-11.146v11.534h-5.398V12.101h5.398v11.418h11.146V12.101h5.398zM5462.252 32.605h-9.32l-2.175 6.68h-5.437l9.787-27.185h5.048l9.748 27.185h-5.437l-2.214-6.68zm-1.359-4.155l-3.223-9.67h-.233l-3.146 9.67h6.602zm-5.436-19.301l3.922-7.573h5.32l-4.971 7.612-4.271-.039zM5472.854 12.101h8l6.02 16.738h.117l6.02-16.738h8v27.185h-5.282V19.79h-.194l-6.835 19.495h-3.495l-6.875-19.495h-.194v19.495h-5.282V12.101zM5529.903 13.421c1.476.88 2.563 2.033 3.262 3.457.699 1.424 1.049 2.951 1.049 4.583 0 1.631-.344 3.14-1.029 4.524-.687 1.385-1.768 2.505-3.243 3.359-1.475.854-3.314 1.281-5.515 1.281h-4.776v8.66h-5.282V12.101h10.059c2.174 0 3.999.44 5.475 1.32zm-2.447 11.689c1.035-.725 1.554-1.941 1.554-3.65 0-1.709-.512-2.906-1.534-3.592-1.023-.686-2.311-1.029-3.864-1.029h-3.961v9.36h3.961c1.527-.001 2.809-.363 3.844-1.089zM5559.533 12.101v27.185h-5.398V27.751h-11.146v11.534h-5.397V12.101h5.397v11.418h11.146V12.101h5.398zM5579.571 32.605h-9.32l-2.175 6.68h-5.437l9.786-27.185h5.049l9.747 27.185h-5.437l-2.213-6.68zm-1.359-4.155l-3.223-9.67h-.233l-3.146 9.67h6.602zm-5.437-19.301l3.922-7.573h5.32l-4.971 7.612-4.271-.039zM5599.104 12.101h6.252l11.107 18.874h.077V12.101h5.359v27.224h-6.291l-11.029-18.33h-.116v18.33h-5.359V12.101zM5631.085 37.615c-1.773-1.32-3.094-3.042-3.961-5.165-.868-2.123-1.301-4.375-1.301-6.757 0-2.46.452-4.764 1.359-6.913.905-2.148 2.284-3.89 4.136-5.223 1.851-1.333 4.122-2 6.815-2 3.081 0 5.599.854 7.554 2.563 1.954 1.708 3.32 3.91 4.097 6.602h-5.67c-.414-1.398-1.113-2.485-2.097-3.262-.984-.777-2.267-1.165-3.845-1.165-2.228 0-3.936.861-5.127 2.583-1.19 1.722-1.786 4.033-1.786 6.932 0 3.004.628 5.334 1.884 6.99 1.255 1.657 3.01 2.485 5.262 2.485 1.968 0 3.482-.602 4.544-1.806 1.062-1.204 1.618-2.66 1.67-4.369v-.621h-5.709v-3.884h10.952v14.68h-4v-4.039h-.312c-.414.674-.822 1.269-1.223 1.787-.402.518-1.179 1.074-2.33 1.669-1.152.596-2.622.894-4.408.894-2.562 0-4.731-.66-6.504-1.981zM5669.744 32.605h-9.32l-2.175 6.68h-5.437l9.786-27.185h5.049l9.747 27.185h-5.437l-2.213-6.68zm-1.359-4.155l-3.223-9.67h-.233l-3.146 9.67h6.602zM5685.201 39.285v-9.437l-8.933-17.748h5.631l5.864 12.271h.233l5.786-12.271h5.67l-8.932 17.748v9.437h-5.319z"/></g><g fill="#ffffff"><path d="M5394.513 22.975h3.192v6.617h.116l5.686-6.617h3.728l-6.011 6.943 6.128 9.367h-3.635l-4.497-7.153-1.515 1.678v5.476h-3.192V22.975zM5422.894 22.975v16.311h-3.239v-6.92h-6.688v6.92h-3.239V22.975h3.239v6.851h6.688v-6.851h3.239zM5434.917 35.277h-5.592l-1.305 4.008h-3.262l5.872-16.311h3.029l5.849 16.311h-3.262l-1.329-4.008zm-.816-2.493l-1.934-5.802h-.14l-1.887 5.802h3.961zm-3.262-11.581l2.353-4.543h3.192l-2.982 4.567-2.563-.024zM5441.278 22.975h4.8l3.612 10.043h.07l3.612-10.043h4.8v16.311h-3.169V27.588h-.116l-4.101 11.697h-2.097l-4.124-11.697h-.117v11.697h-3.169v-16.31zM5475.506 23.767c.886.528 1.538 1.22 1.958 2.074.42.854.629 1.771.629 2.749 0 .978-.206 1.884-.617 2.715-.412.831-1.061 1.503-1.946 2.016-.885.513-1.989.769-3.309.769h-2.866v5.196h-3.169V22.975h6.035c1.305 0 2.4.264 3.285.792zm-1.467 7.013c.621-.435.932-1.165.932-2.19s-.307-1.743-.92-2.155c-.614-.411-1.387-.617-2.318-.617h-2.377v5.615h2.377c.915 0 1.684-.217 2.306-.653zM5493.285 22.975v16.311h-3.239v-6.92h-6.688v6.92h-3.239V22.975h3.239v6.851h6.688v-6.851h3.239zM5505.308 35.277h-5.592l-1.305 4.008h-3.262l5.872-16.311h3.029l5.849 16.311h-3.262l-1.329-4.008zm-.816-2.493l-1.934-5.802h-.14l-1.887 5.802h3.961zm-3.262-11.581l2.353-4.543h3.192l-2.982 4.567-2.563-.024zM5517.028 22.975h3.752l6.664 11.324h.046V22.975h3.216v16.334h-3.774l-6.618-10.998h-.069v10.998h-3.216V22.975zM5536.217 38.283c-1.064-.792-1.856-1.825-2.377-3.099-.521-1.274-.78-2.625-.78-4.055 0-1.476.271-2.858.815-4.147.544-1.289 1.371-2.334 2.481-3.134 1.11-.8 2.474-1.2 4.09-1.2 1.848 0 3.358.513 4.531 1.538 1.173 1.024 1.992 2.346 2.459 3.961h-3.402c-.249-.839-.668-1.491-1.258-1.957-.591-.467-1.36-.699-2.308-.699-1.336 0-2.361.517-3.075 1.549-.715 1.034-1.072 2.42-1.072 4.16 0 1.802.377 3.2 1.131 4.193.753.995 1.806 1.491 3.157 1.491 1.18 0 2.089-.36 2.726-1.083s.971-1.597 1.002-2.621v-.373h-3.425v-2.33h6.57v8.808h-2.399v-2.423h-.187c-.249.403-.493.761-.734 1.071-.241.31-.707.645-1.397 1.002-.691.357-1.573.536-2.646.536-1.537.001-2.839-.396-3.902-1.188zM5559.412 35.277h-5.593l-1.305 4.008h-3.262l5.872-16.311h3.028l5.849 16.311h-3.262l-1.327-4.008zm-.815-2.493l-1.935-5.802h-.14l-1.888 5.802h3.963zM5568.686 39.285v-5.662l-5.358-10.648h3.378l3.519 7.363h.14l3.472-7.363h3.402l-5.359 10.648v5.662h-3.194z"/></g></g><g><path d="M5700 10.461h14.48l13.673 13.991-13.754 13.989H5700l13.428-13.989z" fill="#facfb4" fill-opacity=".967494"/><path d="M5720.51 10.461h14.48l13.673 13.991-13.755 13.989h-14.398l13.428-13.989z" fill="#f8b88d" fill-opacity=".936621"/><path d="M5741.019 10.46h14.481l13.673 13.992-13.755 13.989h-14.399l13.429-13.989z" fill="#f8a169" fill-opacity=".820449"/><g fill="#965a5a"><path d="M5774.913 12.101h5.321V23.13h.194l9.476-11.029h6.213l-10.02 11.573 10.214 15.611h-6.059l-7.495-11.922-2.524 2.796v9.126h-5.321V12.101zM5822.214 12.101v27.185h-5.398V27.751h-11.146v11.534h-5.398V12.101h5.398v11.418h11.146V12.101h5.398zM5842.252 32.605h-9.32l-2.175 6.68h-5.437l9.787-27.185h5.048l9.748 27.185h-5.437l-2.214-6.68zm-1.359-4.155l-3.223-9.67h-.233l-3.146 9.67h6.602zm-5.436-19.301l3.922-7.573h5.32l-4.971 7.612-4.271-.039zM5852.854 12.101h8l6.02 16.738h.117l6.02-16.738h8v27.185h-5.282V19.79h-.194l-6.835 19.495h-3.495l-6.875-19.495h-.194v19.495h-5.282V12.101zM5909.903 13.421c1.476.88 2.563 2.033 3.262 3.457.699 1.424 1.049 2.951 1.049 4.583 0 1.631-.344 3.14-1.029 4.524-.687 1.385-1.768 2.505-3.243 3.359-1.475.854-3.314 1.281-5.515 1.281h-4.776v8.66h-5.282V12.101h10.059c2.174 0 3.999.44 5.475 1.32zm-2.447 11.689c1.035-.725 1.554-1.941 1.554-3.65 0-1.709-.512-2.906-1.534-3.592-1.023-.686-2.311-1.029-3.864-1.029h-3.961v9.36h3.961c1.527-.001 2.809-.363 3.844-1.089zM5939.533 12.101v27.185h-5.398V27.751h-11.146v11.534h-5.397V12.101h5.397v11.418h11.146V12.101h5.398zM5959.571 32.605h-9.32l-2.175 6.68h-5.437l9.786-27.185h5.049l9.747 27.185h-5.437l-2.213-6.68zm-1.359-4.155l-3.223-9.67h-.233l-3.146 9.67h6.602zm-5.437-19.301l3.922-7.573h5.32l-4.971 7.612-4.271-.039zM5979.104 12.101h6.252l11.107 18.874h.077V12.101h5.359v27.224h-6.291l-11.029-18.33h-.116v18.33h-5.359V12.101zM6011.085 37.615c-1.773-1.32-3.094-3.042-3.961-5.165-.868-2.123-1.301-4.375-1.301-6.757 0-2.46.452-4.764 1.359-6.913.905-2.148 2.284-3.89 4.136-5.223 1.851-1.333 4.122-2 6.815-2 3.081 0 5.599.854 7.554 2.563 1.954 1.708 3.32 3.91 4.097 6.602h-5.67c-.414-1.398-1.113-2.485-2.097-3.262-.984-.777-2.267-1.165-3.845-1.165-2.228 0-3.936.861-5.127 2.583-1.19 1.722-1.786 4.033-1.786 6.932 0 3.004.628 5.334 1.884 6.99 1.255 1.657 3.01 2.485 5.262 2.485 1.968 0 3.482-.602 4.544-1.806 1.062-1.204 1.618-2.66 1.67-4.369v-.621h-5.709v-3.884h10.952v14.68h-4v-4.039h-.312c-.414.674-.822 1.269-1.223 1.787-.402.518-1.179 1.074-2.33 1.669-1.152.596-2.622.894-4.408.894-2.562 0-4.731-.66-6.504-1.981zM6049.744 32.605h-9.32l-2.175 6.68h-5.437l9.786-27.185h5.049l9.747 27.185h-5.437l-2.213-6.68zm-1.359-4.155l-3.223-9.67h-.233l-3.146 9.67h6.602zM6065.201 39.285v-9.437l-8.933-17.748h5.631l5.864 12.271h.233l5.786-12.271h5.67l-8.932 17.748v9.437h-5.319z"/></g><g fill="#ffffff"><path d="M5774.513 22.975h3.192v6.617h.116l5.686-6.617h3.728l-6.011 6.943 6.128 9.367h-3.635l-4.497-7.153-1.515 1.678v5.476h-3.192V22.975zM5802.894 22.975v16.311h-3.239v-6.92h-6.688v6.92h-3.239V22.975h3.239v6.851h6.688v-6.851h3.239zM5814.917 35.277h-5.592l-1.305 4.008h-3.262l5.872-16.311h3.029l5.849 16.311h-3.262l-1.329-4.008zm-.816-2.493l-1.934-5.802h-.14l-1.887 5.802h3.961zm-3.262-11.581l2.353-4.543h3.192l-2.982 4.567-2.563-.024zM5821.278 22.975h4.8l3.612 10.043h.07l3.612-10.043h4.8v16.311h-3.169V27.588h-.116l-4.101 11.697h-2.097l-4.124-11.697h-.117v11.697h-3.169v-16.31zM5855.506 23.767c.886.528 1.538 1.22 1.958 2.074.42.854.629 1.771.629 2.749 0 .978-.206 1.884-.617 2.715-.412.831-1.061 1.503-1.946 2.016-.885.513-1.989.769-3.309.769h-2.866v5.196h-3.169V22.975h6.035c1.305 0 2.4.264 3.285.792zm-1.467 7.013c.621-.435.932-1.165.932-2.19s-.307-1.743-.92-2.155c-.614-.411-1.387-.617-2.318-.617h-2.377v5.615h2.377c.915 0 1.684-.217 2.306-.653zM5873.285 22.975v16.311h-3.239v-6.92h-6.688v6.92h-3.239V22.975h3.239v6.851h6.688v-6.851h3.239zM5885.308 35.277h-5.592l-1.305 4.008h-3.262l5.872-16.311h3.029l5.849 16.311h-3.262l-1.329-4.008zm-.816-2.493l-1.934-5.802h-.14l-1.887 5.802h3.961zm-3.262-11.581l2.353-4.543h3.192l-2.982 4.567-2.563-.024zM5897.028 22.975h3.752l6.664 11.324h.046V22.975h3.216v16.334h-3.774l-6.618-10.998h-.069v10.998h-3.216V22.975zM5916.217 38.283c-1.064-.792-1.856-1.825-2.377-3.099-.521-1.274-.78-2.625-.78-4.055 0-1.476.271-2.858.815-4.147.544-1.289 1.371-2.334 2.481-3.134 1.11-.8 2.474-1.2 4.09-1.2 1.848 0 3.358.513 4.531 1.538 1.173 1.024 1.992 2.346 2.459 3.961h-3.402c-.249-.839-.668-1.491-1.258-1.957-.591-.467-1.36-.699-2.308-.699-1.336 0-2.361.517-3.075 1.549-.715 1.034-1.072 2.42-1.072 4.16 0 1.802.377 3.2 1.131 4.193.753.995 1.806 1.491 3.157 1.491 1.18 0 2.089-.36 2.726-1.083s.971-1.597 1.002-2.621v-.373h-3.425v-2.33h6.57v8.808h-2.399v-2.423h-.187c-.249.403-.493.761-.734 1.071-.241.31-.707.645-1.397 1.002-.691.357-1.573.536-2.646.536-1.537.001-2.839-.396-3.902-1.188zM5939.412 35.277h-5.593l-1.305 4.008h-3.262l5.872-16.311h3.028l5.849 16.311h-3.262l-1.327-4.008zm-.815-2.493l-1.935-5.802h-.14l-1.888 5.802h3.963zM5948.686 39.285v-5.662l-5.358-10.648h3.378l3.519 7.363h.14l3.472-7.363h3.402l-5.359 10.648v5.662h-3.194z"/></g></g><g><path d="M6080 10.461h14.48l13.673 13.991-13.754 13.989H6080l13.428-13.989z" fill="#facfb4" fill-opacity=".986687"/><path d="M6100.51 10.461h14.48l13.673 13.991-13.755 13.989h-14.398l13.428-13.989z" fill="#f8b88d" fill-opacity=".975033"/><path d="M6121.019 10.46h14.481l13.673 13.992-13.755 13.989h-14.399l13.429-13.989z" fill="#f8a169" fill-opacity=".936621"/><g fill="#965a5a"><path d="M6154.913 12.101h5.321V23.13h.194l9.476-11.029h6.213l-10.02 11.573 10.214 15.611h-6.059l-7.495-11.922-2.524 2.796v9.126h-5.321V12.101zM6202.214 12.101v27.185h-5.398V27.751h-11.146v11.534h-5.398V12.101h5.398v11.418h11.146V12.101h5.398zM6222.252 32.605h-9.32l-2.175 6.68h-5.437l9.787-27.185h5.048l9.748 27.185h-5.437l-2.214-6.68zm-1.359-4.155l-3.223-9.67h-.233l-3.146 9.67h6.602zm-5.436-19.301l3.922-7.573h5.32l-4.971 7.612-4.271-.039zM6232.854 12.101h8l6.02 16.738h.117l6.02-16.738h8v27.185h-5.282V19.79h-.194l-6.835 19.495h-3.495l-6.875-19.495h-.194v19.495h-5.282V12.101zM6289.903 13.421c1.476.88 2.563 2.033 3.262 3.457.699 1.424 1.049 2.951 1.049 4.583 0 1.631-.344 3.14-1.029 4.524-.687 1.385-1.768 2.505-3.243 3.359-1.475.854-3.314 1.281-5.515 1.281h-4.776v8.66h-5.282V12.101h10.059c2.174 0 3.999.44 5.475 1.32zm-2.447 11.689c1.035-.725 1.554-1.941 1.554-3.65 0-1.709-.512-2.906-1.534-3.592-1.023-.686-2.311-1.029-3.864-1.029h-3.961v9.36h3.961c1.527-.001 2.809-.363 3.844-1.089zM6319.533 12.101v27.185h-5.398V27.751h-11.146v11.534h-5.397V12.101h5.397v11.418h11.146V12.101h5.398zM6339.571 32.605h-9.32l-2.175 6.68h-5.437l9.786-27.185h5.049l9.747 27.185h-5.437l-2.213-6.68zm-1.359-4.155l-3.223-9.67h-.233l-3.146 9.67h6.602zm-5.437-19.301l3.922-7.573h5.32l-4.971 7.612-4.271-.039zM6359.104 12.101h6.252l11.107 18.874h.077V12.101h5.359v27.224h-6.291l-11.029-18.33h-.116v18.33h-5.359V12.101zM6391.085 37.615c-1.773-1.32-3.094-3.042-3.961-5.165-.868-2.123-1.301-4.375-1.301-6.757 0-2.46.452-4.764 1.359-6.913.905-2.148 2.284-3.89 4.136-5.223 1.851-1.333 4.122-2 6.815-2 3.081 0 5.599.854 7.554 2.563 1.954 1.708 3.32 3.91 4.097 6.602h-5.67c-.414-1.398-1.113-2.485-2.097-3.262-.984-.777-2.267-1.165-3.845-1.165-2.228 0-3.936.861-5.127 2.583-1.19 1.722-1.786 4.033-1.786 6.932 0 3.004.628 5.334 1.884 6.99 1.255 1.657 3.01 2.485 5.262 2.485 1.968 0 3.482-.602 4.544-1.806 1.062-1.204 1.618-2.66 1.67-4.369v-.621h-5.709v-3.884h10.952v14.68h-4v-4.039h-.312c-.414.674-.822 1.269-1.223 1.787-.402.518-1.179 1.074-2.33 1.669-1.152.596-2.622.894-4.408.894-2.562 0-4.731-.66-6.504-1.981zM6429.744 32.605h-9.32l-2.175 6.68h-5.437l9.786-27.185h5.049l9.747 27.185h-5.437l-2.213-6.68zm-1.359-4.155l-3.223-9.67h-.233l-3.146 9.67h6.602zM6445.201 39.285v-9.437l-8.933-17.748h5.631l5.864 12.271h.233l5.786-12.271h5.67l-8.932 17.748v9.437h-5.319z"/></g><g fill="#ffffff"><path d="M6154.513 22.975h3.192v6.617h.116l5.686-6.617h3.728l-6.011 6.943 6.128 9.367h-3.635l-4.497-7.153-1.515 1.678v5.476h-3.192V22.975zM6182.894 22.975v16.311h-3.239v-6.92h-6.688v6.92h-3.239V22.975h3.239v6.851h6.688v-6.851h3.239zM6194.917 35.277h-5.592l-1.305 4.008h-3.262l5.872-16.311h3.029l5.849 16.311h-3.262l-1.329-4.008zm-.816-2.493l-1.934-5.802h-.14l-1.887 5.802h3.961zm-3.262-11.581l2.353-4.543h3.192l-2.982 4.567-2.563-.024zM6201.278 22.975h4.8l3.612 10.043h.07l3.612-10.043h4.8v16.311h-3.169V27.588h-.116l-4.101 11.697h-2.097l-4.124-11.697h-.117v11.697h-3.169v-16.31zM6235.506 23.767c.886.528 1.538 1.22 1.958 2.074.42.854.629 1.771.629 2.749 0 .978-.206 1.884-.617 2.715-.412.831-1.061 1.503-1.946 2.016-.885.513-1.989.769-3.309.769h-2.866v5.196h-3.169V22.975h6.035c1.305 0 2.4.264 3.285.792zm-1.467 7.013c.621-.435.932-1.165.932-2.19s-.307-1.743-.92-2.155c-.614-.411-1.387-.617-2.318-.617h-2.377v5.615h2.377c.915 0 1.684-.217 2.306-.653zM6253.285 22.975v16.311h-3.239v-6.92h-6.688v6.92h-3.239V22.975h3.239v6.851h6.688v-6.851h3.239zM6265.308 35.277h-5.592l-1.305 4.008h-3.262l5.872-16.311h3.029l5.849 16.311h-3.262l-1.329-4.008zm-.816-2.493l-1.934-5.802h-.14l-1.887 5.802h3.961zm-3.262-11.581l2.353-4.543h3.192l-2.982 4.567-2.563-.024zM6277.028 22.975h3.752l6.664 11.324h.046V22.975h3.216v16.334h-3.774l-6.618-10.998h-.069v10.998h-3.216V22.975zM6296.217 38.283c-1.064-.792-1.856-1.825-2.377-3.099-.521-1.274-.78-2.625-.78-4.055 0-1.476.271-2.858.815-4.147.544-1.289 1.371-2.334 2.481-3.134 1.11-.8 2.474-1.2 4.09-1.2 1.848 0 3.358.513 4.531 1.538 1.173 1.024 1.992 2.346 2.459 3.961h-3.402c-.249-.839-.668-1.491-1.258-1.957-.591-.467-1.36-.699-2.308-.699-1.336 0-2.361.517-3.075 1.549-.715 1.034-1.072 2.42-1.072 4.16 0 1.802.377 3.2 1.131 4.193.753.995 1.806 1.491 3.157 1.491 1.18 0 2.089-.36 2.726-1.083s.971-1.597 1.002-2.621v-.373h-3.425v-2.33h6.57v8.808h-2.399v-2.423h-.187c-.249.403-.493.761-.734 1.071-.241.31-.707.645-1.397 1.002-.691.357-1.573.536-2.646.536-1.537.001-2.839-.396-3.902-1.188zM6319.412 35.277h-5.593l-1.305 4.008h-3.262l5.872-16.311h3.028l5.849 16.311h-3.262l-1.327-4.008zm-.815-2.493l-1.935-5.802h-.14l-1.888 5.802h3.963zM6328.686 39.285v-5.662l-5.358-10.648h3.378l3.519 7.363h.14l3.472-7.363h3.402l-5.359 10.648v5.662h-3.194z"/></g></g><g><path d="M6460 10.461h14.48l13.673 13.991-13.754 13.989H6460l13.428-13.989z" fill="#facfb4" fill-opacity=".996907"/><path d="M6480.51 10.461h14.48l13.673 13.991-13.755 13.989h-14.398l13.428-13.989z" fill="#f8b88d" fill-opacity=".99437"/><path d="M6501.019 10.46h14.481l13.673 13.992-13.755 13.989h-14.399l13.429-13.989z" fill="#f8a169" fill-opacity=".986687"/><g fill="#965a5a"><path d="M6534.913 12.101h5.321V23.13h.194l9.476-11.029h6.213l-10.02 11.573 10.214 15.611h-6.059l-7.495-11.922-2.524 2.796v9.126h-5.321V12.101zM6582.214 12.101v27.185h-5.398V27.751h-11.146v11.534h-5.398V12.101h5.398v11.418h11.146V12.101h5.398zM6602.252 32.605h-9.32l-2.175 6.68h-5.437l9.787-27.185h5.048l9.748 27.185h-5.437l-2.214-6.68zm-1.359-4.155l-3.223-9.67h-.233l-3.146 9.67h6.602zm-5.436-19.301l3.922-7.573h5.32l-4.971 7.612-4.271-.039zM6612.854 12.101h8l6.02 16.738h.117l6.02-16.738h8v27.185h-5.282V19.79h-.194l-6.835 19.495h-3.495l-6.875-19.495h-.194v19.495h-5.282V12.101zM6669.903 13.421c1.476.88 2.563 2.033 3.262 3.457.699 1.424 1.049 2.951 1.049 4.583 0 1.631-.344 3.14-1.029 4.524-.687 1.385-1.768 2.505-3.243 3.359-1.475.854-3.314 1.281-5.515 1.281h-4.776v8.66h-5.282V12.101h10.059c2.174 0 3.999.44 5.475 1.32zm-2.447 11.689c1.035-.725 1.554-1.941 1.554-3.65 0-1.709-.512-2.906-1.534-3.592-1.023-.686-2.311-1.029-3.864-1.029h-3.961v9.36h3.961c1.527-.001 2.809-.363 3.844-1.089zM6699.533 12.101v27.185h-5.398V27.751h-11.146v11.534h-5.397V12.101h5.397v11.418h11.146V12.101h5.398zM6719.571 32.605h-9.32l-2.175 6.68h-5.437l9.786-27.185h5.049l9.747 27.185h-5.437l-2.213-6.68zm-1.359-4.155l-3.223-9.67h-.233l-3.146 9.67h6.602zm-5.437-19.301l3.922-7.573h5.32l-4.971 7.612-4.271-.039zM6739.104 12.101h6.252l11.107 18.874h.077V12.101h5.359v27.224h-6.291l-11.029-18.33h-.116v18.33h-5.359V12.101zM6771.085 37.615c-1.773-1.32-3.094-3.042-3.961-5.165-.868-2.123-1.301-4.375-1.301-6.757 0-2.46.452-4.764 1.359-6.913.905-2.148 2.284-3.89 4.136-5.223 1.851-1.333 4.122-2 6.815-2 3.081 0 5.599.854 7.554 2.563 1.954 1.708 3.32 3.91 4.097 6.602h-5.67c-.414-1.398-1.113-2.485-2.097-3.262-.984-.777-2.267-1.165-3.845-1.165-2.228 0-3.936.861-5.127 2.583-1.19 1.722-1.786 4.033-1.786 6.932 0 3.004.628 5.334 1.884 6.99 1.255 1.657 3.01 2.485 5.262 2.485 1.968 0 3.482-.602 4.544-1.806 1.062-1.204 1.618-2.66 1.67-4.369v-.621h-5.709v-3.884h10.952v14.68h-4v-4.039h-.312c-.414.674-.822 1.269-1.223 1.787-.402.518-1.179 1.074-2.33 1.669-1.152.596-2.622.894-4.408.894-2.562 0-4.731-.66-6.504-1.981zM6809.744 32.605h-9.32l-2.175 6.68h-5.437l9.786-27.185h5.049l9.747 27.185h-5.437l-2.213-6.68zm-1.359-4.155l-3.223-9.67h-.233l-3.146 9.67h6.602zM6825.201 39.285v-9.437l-8.933-17.748h5.631l5.864 12.271h.233l5.786-12.271h5.67l-8.932 17.748v9.437h-5.319z"/></g><g fill="#ffffff"><path d="M6534.513 22.975h3.192v6.617h.116l5.686-6.617h3.728l-6.011 6.943 6.128 9.367h-3.635l-4.497-7.153-1.515 1.678v5.476h-3.192V22.975zM6562.894 22.975v16.311h-3.239v-6.92h-6.688v6.92h-3.239V22.975h3.239v6.851h6.688v-6.851h3.239zM6574.917 35.277h-5.592l-1.305 4.008h-3.262l5.872-16.311h3.029l5.849 16.311h-3.262l-1.329-4.008zm-.816-2.493l-1.934-5.802h-.14l-1.887 5.802h3.961zm-3.262-11.581l2.353-4.543h3.192l-2.982 4.567-2.563-.024zM6581.278 22.975h4.8l3.612 10.043h.07l3.612-10.043h4.8v16.311h-3.169V27.588h-.116l-4.101 11.697h-2.097l-4.124-11.697h-.117v11.697h-3.169v-16.31zM6615.506 23.767c.886.528 1.538 1.22 1.958 2.074.42.854.629 1.771.629 2.749 0 .978-.206 1.884-.617 2.715-.412.831-1.061 1.503-1.946 2.016-.885.513-1.989.769-3.309.769h-2.866v5.196h-3.169V22.975h6.035c1.305 0 2.4.264 3.285.792zm-1.467 7.013c.621-.435.932-1.165.932-2.19s-.307-1.743-.92-2.155c-.614-.411-1.387-.617-2.318-.617h-2.377v5.615h2.377c.915 0 1.684-.217 2.306-.653zM6633.285 22.975v16.311h-3.239v-6.92h-6.688v6.92h-3.239V22.975h3.239v6.851h6.688v-6.851h3.239zM6645.308 35.277h-5.592l-1.305 4.008h-3.262l5.872-16.311h3.029l5.849 16.311h-3.262l-1.329-4.008zm-.816-2.493l-1.934-5.802h-.14l-1.887 5.802h3.961zm-3.262-11.581l2.353-4.543h3.192l-2.982 4.567-2.563-.024zM6657.028 22.975h3.752l6.664 11.324h.046V22.975h3.216v16.334h-3.774l-6.618-10.998h-.069v10.998h-3.216V22.975zM6676.217 38.283c-1.064-.792-1.856-1.825-2.377-3.099-.521-1.274-.78-2.625-.78-4.055 0-1.476.271-2.858.815-4.147.544-1.289 1.371-2.334 2.481-3.134 1.11-.8 2.474-1.2 4.09-1.2 1.848 0 3.358.513 4.531 1.538 1.173 1.024 1.992 2.346 2.459 3.961h-3.402c-.249-.839-.668-1.491-1.258-1.957-.591-.467-1.36-.699-2.308-.699-1.336 0-2.361.517-3.075 1.549-.715 1.034-1.072 2.42-1.072 4.16 0 1.802.377 3.2 1.131 4.193.753.995 1.806 1.491 3.157 1.491 1.18 0 2.089-.36 2.726-1.083s.971-1.597 1.002-2.621v-.373h-3.425v-2.33h6.57v8.808h-2.399v-2.423h-.187c-.249.403-.493.761-.734 1.071-.241.31-.707.645-1.397 1.002-.691.357-1.573.536-2.646.536-1.537.001-2.839-.396-3.902-1.188zM6699.412 35.277h-5.593l-1.305 4.008h-3.262l5.872-16.311h3.028l5.849 16.311h-3.262l-1.327-4.008zm-.815-2.493l-1.935-5.802h-.14l-1.888 5.802h3.963zM6708.686 39.285v-5.662l-5.358-10.648h3.378l3.519 7.363h.14l3.472-7.363h3.402l-5.359 10.648v5.662h-3.194z"/></g></g><g><path d="M6840 10.461h14.48l13.673 13.991-13.754 13.989H6840l13.428-13.989z" fill="#facfb4"/><path d="M6860.51 10.461h14.48l13.673 13.991-13.755 13.989h-14.398l13.428-13.989z" fill="#f8b88d"/><path d="M6881.019 10.46h14.481l13.673 13.992-13.755 13.989h-14.399l13.429-13.989z" fill="#f8a169"/><g fill="#965a5a"><path d="M6914.913 12.101h5.321V23.13h.194l9.476-11.029h6.213l-10.02 11.573 10.214 15.611h-6.059l-7.495-11.922-2.524 2.796v9.126h-5.321V12.101zM6962.214 12.101v27.185h-5.398V27.751h-11.146v11.534h-5.398V12.101h5.398v11.418h11.146V12.101h5.398zM6982.252 32.605h-9.32l-2.175 6.68h-5.437l9.787-27.185h5.048l9.748 27.185h-5.437l-2.214-6.68zm-1.359-4.155l-3.223-9.67h-.233l-3.146 9.67h6.602zm-5.436-19.301l3.922-7.573h5.32l-4.971 7.612-4.271-.039zM6992.854 12.101h8l6.02 16.738h.117l6.02-16.738h8v27.185h-5.282V19.79h-.194l-6.835 19.495h-3.495l-6.875-19.495h-.194v19.495h-5.282V12.101zM7049.903 13.421c1.476.88 2.563 2.033 3.262 3.457.699 1.424 1.049 2.951 1.049 4.583 0 1.631-.344 3.14-1.029 4.524-.687 1.385-1.768 2.505-3.243 3.359-1.475.854-3.314 1.281-5.515 1.281h-4.776v8.66h-5.282V12.101h10.059c2.174 0 3.999.44 5.475 1.32zm-2.447 11.689c1.035-.725 1.554-1.941 1.554-3.65 0-1.709-.512-2.906-1.534-3.592-1.023-.686-2.311-1.029-3.864-1.029h-3.961v9.36h3.961c1.527-.001 2.809-.363 3.844-1.089zM7079.533 12.101v27.185h-5.398V27.751h-11.146v11.534h-5.397V12.101h5.397v11.418h11.146V12.101h5.398zM7099.571 32.605h-9.32l-2.175 6.68h-5.437l9.786-27.185h5.049l9.747 27.185h-5.437l-2.213-6.68zm-1.359-4.155l-3.223-9.67h-.233l-3.146 9.67h6.602zm-5.437-19.301l3.922-7.573h5.32l-4.971 7.612-4.271-.039zM7119.104 12.101h6.252l11.107 18.874h.077V12.101h5.359v27.224h-6.291l-11.029-18.33h-.116v18.33h-5.359V12.101zM7151.085 37.615c-1.773-1.32-3.094-3.042-3.961-5.165-.868-2.123-1.301-4.375-1.301-6.757 0-2.46.452-4.764 1.359-6.913.905-2.148 2.284-3.89 4.136-5.223 1.851-1.333 4.122-2 6.815-2 3.081 0 5.599.854 7.554 2.563 1.954 1.708 3.32 3.91 4.097 6.602h-5.67c-.414-1.398-1.113-2.485-2.097-3.262-.984-.777-2.267-1.165-3.845-1.165-2.228 0-3.936.861-5.127 2.583-1.19 1.722-1.786 4.033-1.786 6.932 0 3.004.628 5.334 1.884 6.99 1.255 1.657 3.01 2.485 5.262 2.485 1.968 0 3.482-.602 4.544-1.806 1.062-1.204 1.618-2.66 1.67-4.369v-.621h-5.709v-3.884h10.952v14.68h-4v-4.039h-.312c-.414.674-.822 1.269-1.223 1.787-.402.518-1.179 1.074-2.33 1.669-1.152.596-2.622.894-4.408.894-2.562 0-4.731-.66-6.504-1.981zM7189.744 32.605h-9.32l-2.175 6.68h-5.437l9.786-27.185h5.049l9.747 27.185h-5.437l-2.213-6.68zm-1.359-4.155l-3.223-9.67h-.233l-3.146 9.67h6.602zM7205.201 39.285v-9.437l-8.933-17.748h5.631l5.864 12.271h.233l5.786-12.271h5.67l-8.932 17.748v9.437h-5.319z"/></g><g fill="#ffffff"><path d="M6914.513 22.975h3.192v6.617h.116l5.686-6.617h3.728l-6.011 6.943 6.128 9.367h-3.635l-4.497-7.153-1.515 1.678v5.476h-3.192V22.975zM6942.894 22.975v16.311h-3.239v-6.92h-6.688v6.92h-3.239V22.975h3.239v6.851h6.688v-6.851h3.239zM6954.917 35.277h-5.592l-1.305 4.008h-3.262l5.872-16.311h3.029l5.849 16.311h-3.262l-1.329-4.008zm-.816-2.493l-1.934-5.802h-.14l-1.887 5.802h3.961zm-3.262-11.581l2.353-4.543h3.192l-2.982 4.567-2.563-.024zM6961.278 22.975h4.8l3.612 10.043h.07l3.612-10.043h4.8v16.311h-3.169V27.588h-.116l-4.101 11.697h-2.097l-4.124-11.697h-.117v11.697h-3.169v-16.31zM6995.506 23.767c.886.528 1.538 1.22 1.958 2.074.42.854.629 1.771.629 2.749 0 .978-.206 1.884-.617 2.715-.412.831-1.061 1.503-1.946 2.016-.885.513-1.989.769-3.309.769h-2.866v5.196h-3.169V22.975h6.035c1.305 0 2.4.264 3.285.792zm-1.467 7.013c.621-.435.932-1.165.932-2.19s-.307-1.743-.92-2.155c-.614-.411-1.387-.617-2.318-.617h-2.377v5.615h2.377c.915 0 1.684-.217 2.306-.653zM7013.285 22.975v16.311h-3.239v-6.92h-6.688v6.92h-3.239V22.975h3.239v6.851h6.688v-6.851h3.239zM7025.308 35.277h-5.592l-1.305 4.008h-3.262l5.872-16.311h3.029l5.849 16.311h-3.262l-1.329-4.008zm-.816-2.493l-1.934-5.802h-.14l-1.887 5.802h3.961zm-3.262-11.581l2.353-4.543h3.192l-2.982 4.567-2.563-.024zM7037.028 22.975h3.752l6.664 11.324h.046V22.975h3.216v16.334h-3.774l-6.618-10.998h-.069v10.998h-3.216V22.975zM7056.217 38.283c-1.064-.792-1.856-1.825-2.377-3.099-.521-1.274-.78-2.625-.78-4.055 0-1.476.271-2.858.815-4.147.544-1.289 1.371-2.334 2.481-3.134 1.11-.8 2.474-1.2 4.09-1.2 1.848 0 3.358.513 4.531 1.538 1.173 1.024 1.992 2.346 2.459 3.961h-3.402c-.249-.839-.668-1.491-1.258-1.957-.591-.467-1.36-.699-2.308-.699-1.336 0-2.361.517-3.075 1.549-.715 1.034-1.072 2.42-1.072 4.16 0 1.802.377 3.2 1.131 4.193.753.995 1.806 1.491 3.157 1.491 1.18 0 2.089-.36 2.726-1.083s.971-1.597 1.002-2.621v-.373h-3.425v-2.33h6.57v8.808h-2.399v-2.423h-.187c-.249.403-.493.761-.734 1.071-.241.31-.707.645-1.397 1.002-.691.357-1.573.536-2.646.536-1.537.001-2.839-.396-3.902-1.188zM7079.412 35.277h-5.593l-1.305 4.008h-3.262l5.872-16.311h3.028l5.849 16.311h-3.262l-1.327-4.008zm-.815-2.493l-1.935-5.802h-.14l-1.888 5.802h3.963zM7088.686 39.285v-5.662l-5.358-10.648h3.378l3.519 7.363h.14l3.472-7.363h3.402l-5.359 10.648v5.662h-3.194z"/></g></g></svg>