<?xml version="1.0" encoding="iso-8859-1"?>
<!-- Generator: Adobe Illustrator 18.1.1, SVG Export Plug-In . SVG Version: 6.00 Build 0)  -->
<svg version="1.1" id="Capa_1" xmlns="http://www.w3.org/2000/svg" xmlns:xlink="http://www.w3.org/1999/xlink" x="0px" y="0px"
	 viewBox="0 0 35.329 35.329" style="enable-background:new 0 0 35.329 35.329;" xml:space="preserve">
<g>
	<path style="fill:#030104;" d="M23.828,21.142c0.783-0.418,4.125,0.679,9.24-13.73c-0.312,0.883-1.386,1.763-2.056,2.344
		c-1.899,1.644-4.149,2.756-6.621,3.243c0.421-1.285,0.558-2.757,0.628-4.098c0.057-1.071,0.034-2.213-0.212-3.262
		c-0.188-0.799-0.772-1.53-0.793-2.346c-0.019-0.725,0.231-1.661,0.44-2.36c-0.588,1.965-1.818,3.402-3.139,4.931
		c-1.495,1.731-2.104,3.362-2.91,5.46c-0.07-0.264-0.112-0.536-0.181-0.801c-0.117-0.446-0.263-0.881-0.426-1.312
		c-0.322-0.848-0.719-1.674-1.244-2.415c-0.563-0.794-1.405-1.253-2.125-1.879c-0.875-0.761-1.084-1.602-1.489-2.644
		C12.645,1.516,12.336,0.743,12.03,0c0.157,0.382-0.045,1.244-0.054,1.648c-0.025,1.12-0.028,2.24-0.025,3.359
		c0.007,2.51,0.098,5.059,0.751,7.497c-0.559-1.142-2.547-1.586-3.647-1.978C6.797,9.719,5.203,8.421,3.398,6.874
		c0.82,1.107,1.661,2.213,2.324,3.424c0.62,1.132,0.964,2.379,1.495,3.55c1.069,2.359,2.979,3.964,5.057,5.421
		c-1.287-0.776-3.33-0.039-4.678,0.185c-2.05,0.342-3.48-0.477-5.335-1.184c0.977,0.372,2.021,1.654,2.892,2.271
		c1.054,0.748,2.14,1.427,3.299,1.998c2.219,1.095,4.897,1.725,7.339,1.057c-0.786,0.215-1.594,0.675-2.236,1.171
		c-0.723,0.56-1.145,1.43-1.827,2.043c-0.601,0.54-1.319,0.901-2.024,1.283c1.586-0.201,3.157-0.558,4.657-1.112
		c1.311-0.484,2.909-1.177,3.875-2.314c0.074,0.229,0.152,0.463,0.228,0.707c0.14,0.467,0.336,0.949,0.517,1.446
		c0.38,0.994,0.846,2.031,1.38,3.031c0.274,0.498,0.548,0.992,0.862,1.458c0.287,0.477,0.639,0.911,0.952,1.336
		c0.355,0.406,0.678,0.801,1.051,1.129c0.34,0.348,0.736,0.616,1.079,0.861c0.375,0.218,0.713,0.408,1.052,0.505
		c0.315,0.142,0.633,0.138,0.866,0.183c0.241,0.023,0.435-0.025,0.56-0.027c0.127-0.01,0.193-0.018,0.193-0.018
		s-0.068-0.01-0.193-0.027c-0.125-0.026-0.312-0.022-0.529-0.098c-0.215-0.097-0.485-0.15-0.742-0.349
		c-0.275-0.15-0.538-0.396-0.814-0.657c-0.254-0.294-0.539-0.593-0.768-0.979c-0.256-0.356-0.464-0.784-0.689-1.205
		c-0.191-0.451-0.412-0.895-0.568-1.385c-0.18-0.475-0.326-0.977-0.467-1.475c-0.265-1.002-0.472-2.021-0.601-2.982
		c-0.057-0.484-0.152-0.943-0.178-1.39c-0.022-0.325-0.069-0.632-0.1-0.925c1.862,1.203,4.027,1.527,6.223,0.932
		c1.27-0.345,2.893-0.814,3.968-1.574c-0.903-0.338-1.961-0.011-2.889-0.402C26.91,22.036,25.888,20.82,23.828,21.142z"/>
</g>
<g>
</g>
<g>
</g>
<g>
</g>
<g>
</g>
<g>
</g>
<g>
</g>
<g>
</g>
<g>
</g>
<g>
</g>
<g>
</g>
<g>
</g>
<g>
</g>
<g>
</g>
<g>
</g>
<g>
</g>
</svg>
