<?xml version="1.0" standalone="no"?>
<!DOCTYPE svg PUBLIC "-//W3C//DTD SVG 20010904//EN"
 "http://www.w3.org/TR/2001/REC-SVG-20010904/DTD/svg10.dtd">
<svg version="1.0" xmlns="http://www.w3.org/2000/svg"
 width="260.000000pt" height="260.000000pt" viewBox="0 0 260.000000 260.000000"
 preserveAspectRatio="xMidYMid meet">
<metadata>
Created by potrace 1.11, written by Peter Selinger 2001-2013
</metadata>
<g transform="translate(0.000000,260.000000) scale(0.100000,-0.100000)"
fill="#000000" stroke="none">
<path d="M1215 2420 c-4 -13 1 -31 14 -49 21 -29 21 -30 1 -36 -11 -3 -32 -8
-47 -11 -16 -3 -35 -7 -43 -9 -8 -2 -29 -7 -46 -10 -51 -8 -399 -113 -524
-157 -63 -22 -165 -62 -227 -89 -65 -28 -127 -49 -147 -49 -43 0 -45 -11 -15
-78 49 -110 85 -120 239 -66 61 21 110 41 110 45 0 4 -19 5 -42 2 -42 -5 -42
-5 -21 11 33 25 143 74 178 80 17 3 68 19 115 36 47 17 134 39 194 51 61 11
132 32 160 46 56 28 116 41 116 24 0 -6 -19 -15 -42 -22 -76 -20 -87 -30 -29
-24 29 3 58 8 62 11 19 11 15 -57 -11 -186 -6 -30 -13 -66 -16 -80 -2 -14 -9
-45 -14 -70 -5 -25 -12 -61 -15 -80 -13 -81 -86 -362 -119 -455 -85 -243 -188
-443 -326 -630 -81 -110 -139 -171 -211 -220 -30 -20 -56 -41 -59 -45 -3 -4
-25 -11 -50 -15 l-46 -7 2 59 c2 75 5 89 59 279 53 182 74 243 111 316 14 28
32 68 39 89 7 20 51 95 97 168 106 167 157 255 151 261 -4 5 -20 -11 -148
-151 -98 -107 -118 -130 -182 -214 -171 -222 -268 -467 -288 -721 -5 -70 -4
-72 35 -133 37 -57 47 -65 118 -97 131 -61 236 -46 388 54 103 68 131 94 218
206 134 171 291 449 354 626 37 103 158 509 168 565 3 22 8 47 9 55 2 9 6 43
10 75 4 33 9 68 11 79 5 26 17 191 18 256 2 53 3 55 36 67 31 10 32 12 10 13
-14 0 -32 4 -39 9 -24 15 31 25 174 31 41 2 45 3 25 10 -19 6 -9 8 38 9 46 1
61 -2 56 -11 -5 -8 -2 -9 9 -5 9 3 19 2 22 -3 3 -5 16 -9 28 -9 12 1 48 -2 80
-6 45 -5 57 -3 51 6 -5 9 -2 10 10 6 10 -4 30 -7 44 -7 21 0 24 -3 12 -10 -13
-8 -13 -10 0 -14 46 -15 91 -23 124 -21 27 1 40 -3 47 -17 10 -19 167 -103
176 -94 13 13 19 83 9 106 -48 110 -174 178 -396 214 -95 15 -280 15 -511 0
-92 -6 -99 -5 -167 25 -83 37 -138 41 -147 11z m912 -216 c-3 -3 -12 -4 -19
-1 -8 3 -5 6 6 6 11 1 17 -2 13 -5z"/>
<path d="M1837 1500 c-121 -107 -297 -396 -363 -594 -31 -95 -53 -213 -49
-270 7 -128 128 -232 254 -220 83 8 145 62 260 228 41 58 76 106 79 106 2 0 2
-15 -2 -32 -20 -101 -29 -427 -14 -488 4 -14 7 -28 7 -32 2 -14 33 -38 49 -38
15 0 17 14 15 134 -2 126 2 159 37 306 6 25 12 54 14 65 16 86 94 332 109 343
19 14 150 52 180 52 17 0 27 5 27 14 0 18 -15 23 -105 36 -38 5 -81 12 -95 15
-34 7 -120 7 -150 0 -14 -3 -50 -9 -80 -12 -30 -3 -66 -10 -80 -15 l-25 -9 40
-24 c22 -13 45 -28 52 -32 13 -9 -277 -407 -341 -468 -49 -46 -57 -35 -51 60
13 176 206 595 339 735 38 40 67 49 31 10 -23 -26 -5 -26 27 -1 14 11 47 25
74 32 63 15 84 26 84 44 0 35 -85 68 -235 91 -37 5 -44 2 -88 -36z"/>
</g>
</svg>
