<?xml version="1.0" encoding="iso-8859-1"?>
<!-- Generator: Adobe Illustrator 18.1.1, SVG Export Plug-In . SVG Version: 6.00 Build 0)  -->
<svg version="1.1" id="Capa_1" xmlns="http://www.w3.org/2000/svg" xmlns:xlink="http://www.w3.org/1999/xlink" x="0px" y="0px"
	 viewBox="0 0 38.147 38.147" style="enable-background:new 0 0 38.147 38.147;" xml:space="preserve">
<g>
	<path style="fill:#030104;" d="M30.812,4.219c-0.754-0.182-1.508-0.268-2.25-0.268c-4.323,0-8.246,2.948-9.302,7.335l-0.154,1.18
		C18.624,7.52,14.46,3.819,9.588,3.819c-0.305,0-0.613,0.015-0.923,0.044C3.4,4.366-0.459,9.042,0.044,14.307l2.303,11.241
		c0.475,4.963,3.575,8.78,8.339,8.78c0.29,0,0.586-0.014,0.888-0.043c3.256-0.312,5.507-2.177,6.633-4.799
		c0.952,2.151,2.764,3.797,5.448,4.444c0.71,0.17,1.397,0.252,2.061,0.252c4.13,0,7.235-3.174,8.304-7.605l3.859-10.806
		C39.117,10.63,35.953,5.458,30.812,4.219z M4.945,23.285l-1.928-9.41c-0.124-1.697,0.401-3.349,1.488-4.666
		c0.95-1.151,2.234-1.924,3.67-2.234c0.131,0.673,0.275,1.681,0.34,2.671c-0.852,0.377-1.413,1.259-1.319,2.237
		c0.097,1.013,0.862,1.793,1.816,1.967C9,13.933,8.989,14.013,8.976,14.099c-0.122,0.71-0.303,1.527-0.518,2.377
		c-0.263,0.84-0.507,1.732-0.893,2.548c-0.166,0.42-0.42,0.792-0.646,1.156c-0.26,0.345-0.483,0.688-0.702,0.994
		c-0.184,0.34-0.387,0.619-0.538,0.932c-0.174,0.283-0.327,0.57-0.494,0.812C5.11,23.059,5.028,23.175,4.945,23.285z M14.952,29.227
		c-0.823,1.221-2.056,1.916-3.664,2.07c-0.204,0.02-0.407,0.029-0.602,0.029c-3.519,0-5.072-3.133-5.352-6.064l-0.005-0.058
		c0.049-0.003,0.091-0.003,0.142-0.006c0.342-0.086,0.8-0.157,1.191-0.375c0.428-0.188,0.826-0.47,1.218-0.806
		c0.367-0.342,0.742-0.743,1-1.203c0.282-0.46,0.455-0.975,0.612-1.496c0.123-0.527,0.273-1.048,0.363-1.569
		c0.095-0.414,0.158-0.827,0.211-1.236c0.13,0.392,0.271,0.785,0.442,1.174c0.188,0.494,0.434,0.978,0.654,1.472
		c0.252,0.481,0.52,0.956,0.884,1.353c0.341,0.403,0.785,0.727,1.21,0.992c0.449,0.256,0.892,0.457,1.349,0.562
		c0.425,0.14,0.889,0.123,1.24,0.143c0.052-0.006,0.092-0.014,0.141-0.021l0.005,0.057C16.178,26.189,15.809,27.959,14.952,29.227z
		 M15.998,22.229c-0.103-0.092-0.206-0.19-0.306-0.315c-0.21-0.205-0.414-0.46-0.639-0.704c-0.207-0.277-0.459-0.513-0.704-0.812
		c-0.273-0.261-0.557-0.555-0.878-0.843c-0.291-0.316-0.611-0.633-0.853-1.014c-0.533-0.728-0.941-1.558-1.359-2.333
		c-0.372-0.794-0.705-1.562-0.959-2.236c-0.029-0.082-0.055-0.159-0.083-0.238c0.904-0.352,1.507-1.263,1.41-2.276
		c-0.07-0.736-0.496-1.349-1.087-1.699c-0.028-0.833-0.106-1.941-0.309-2.91c3.058,0.295,5.512,2.67,5.876,5.775L15.998,22.229z
		 M22.212,11.847c0.763-2.89,3.353-4.897,6.351-4.897c0.086,0,0.172,0.012,0.26,0.016c-0.383,0.767-0.62,1.782-0.742,2.851
		c-0.611,0.271-1.1,0.806-1.268,1.506c-0.238,0.989,0.23,1.974,1.074,2.45c-0.039,0.078-0.07,0.144-0.113,0.225
		c-0.346,0.632-0.784,1.345-1.265,2.079c-0.522,0.708-1.043,1.473-1.674,2.119c-0.294,0.343-0.655,0.612-0.987,0.884
		c-0.357,0.24-0.68,0.492-0.986,0.711c-0.285,0.263-0.567,0.459-0.812,0.705c-0.257,0.211-0.494,0.435-0.732,0.606
		c-0.116,0.109-0.231,0.193-0.346,0.27L22.212,11.847z M31.102,25.873c-0.617,2.566-2.357,5.308-5.386,5.308
		c-0.435,0-0.892-0.057-1.358-0.168c-1.569-0.379-2.692-1.241-3.336-2.564c-0.668-1.377-0.786-3.182-0.328-5.082l0.014-0.055
		c0.048,0.013,0.086,0.027,0.137,0.039c0.352,0.031,0.809,0.113,1.248,0.033c0.467-0.039,0.934-0.176,1.414-0.365
		c0.458-0.203,0.943-0.461,1.338-0.812c0.418-0.343,0.748-0.773,1.065-1.216c0.288-0.458,0.599-0.901,0.854-1.365
		c0.225-0.36,0.418-0.73,0.603-1.1c-0.005,0.413,0,0.831,0.036,1.254c0.016,0.528,0.092,1.065,0.139,1.604
		c0.081,0.539,0.18,1.073,0.395,1.568c0.192,0.492,0.506,0.941,0.821,1.332c0.341,0.389,0.695,0.723,1.093,0.971
		c0.355,0.271,0.799,0.405,1.125,0.538c0.051,0.011,0.092,0.017,0.141,0.026L31.102,25.873z M34.994,14.925l-3.23,9.046
		c-0.068-0.121-0.134-0.248-0.188-0.397c-0.133-0.263-0.242-0.569-0.375-0.874c-0.105-0.33-0.268-0.634-0.402-0.997
		c-0.174-0.335-0.346-0.706-0.555-1.082c-0.172-0.394-0.371-0.797-0.477-1.236c-0.268-0.862-0.384-1.78-0.526-2.648
		c-0.095-0.872-0.158-1.707-0.179-2.427c-0.002-0.087-0.002-0.168-0.002-0.252c0.97-0.039,1.836-0.703,2.076-1.692
		c0.238-0.982-0.222-1.959-1.054-2.439c0.173-1.364,0.516-2.207,0.719-2.378c-0.02,0.018-0.107,0.066-0.232,0.066V7.269
		c1.506,0.479,2.777,1.466,3.609,2.827C35.068,11.553,35.357,13.262,34.994,14.925z"/>
</g>
<g>
</g>
<g>
</g>
<g>
</g>
<g>
</g>
<g>
</g>
<g>
</g>
<g>
</g>
<g>
</g>
<g>
</g>
<g>
</g>
<g>
</g>
<g>
</g>
<g>
</g>
<g>
</g>
<g>
</g>
</svg>
